<svg width="1363" height="167" viewBox="0 0 1363 167" fill="none" xmlns="http://www.w3.org/2000/svg">
<rect width="1363" height="167" rx="15" fill="#F0F0F0"/>
<path d="M0 15C0 6.71573 6.71573 0 15 0H37V167H15C6.71573 167 0 160.284 0 152V15Z" fill="#424241"/>
<path d="M100.906 54.9219L93.3945 52.2383V49.0859L103.602 53.375V55.6367L100.906 54.9219ZM93.3945 57.1719L100.918 54.4297L103.602 53.7852V56.0352L93.3945 60.3242V57.1719ZM125.914 53.0703V53.8789C125.914 55.1758 125.738 56.3398 125.387 57.3711C125.035 58.4023 124.539 59.2812 123.898 60.0078C123.258 60.7266 122.492 61.2773 121.602 61.6602C120.719 62.043 119.738 62.2344 118.66 62.2344C117.59 62.2344 116.609 62.043 115.719 61.6602C114.836 61.2773 114.07 60.7266 113.422 60.0078C112.773 59.2812 112.27 58.4023 111.91 57.3711C111.559 56.3398 111.383 55.1758 111.383 53.8789V53.0703C111.383 51.7656 111.559 50.6016 111.91 49.5781C112.262 48.5469 112.758 47.668 113.398 46.9414C114.047 46.2148 114.812 45.6602 115.695 45.2773C116.586 44.8945 117.566 44.7031 118.637 44.7031C119.715 44.7031 120.695 44.8945 121.578 45.2773C122.469 45.6602 123.234 46.2148 123.875 46.9414C124.523 47.668 125.023 48.5469 125.375 49.5781C125.734 50.6016 125.914 51.7656 125.914 53.0703ZM122.363 53.8789V53.0469C122.363 52.1406 122.281 51.3438 122.117 50.6562C121.953 49.9688 121.711 49.3906 121.391 48.9219C121.07 48.4531 120.68 48.1016 120.219 47.8672C119.758 47.625 119.23 47.5039 118.637 47.5039C118.043 47.5039 117.516 47.625 117.055 47.8672C116.602 48.1016 116.215 48.4531 115.895 48.9219C115.582 49.3906 115.344 49.9688 115.18 50.6562C115.016 51.3438 114.934 52.1406 114.934 53.0469V53.8789C114.934 54.7773 115.016 55.5742 115.18 56.2695C115.344 56.957 115.586 57.5391 115.906 58.0156C116.227 58.4844 116.617 58.8398 117.078 59.082C117.539 59.3242 118.066 59.4453 118.66 59.4453C119.254 59.4453 119.781 59.3242 120.242 59.082C120.703 58.8398 121.09 58.4844 121.402 58.0156C121.715 57.5391 121.953 56.957 122.117 56.2695C122.281 55.5742 122.363 54.7773 122.363 53.8789ZM131.539 52.0273V62H128.164V49.3203H131.328L131.539 52.0273ZM131.047 55.2148H130.133C130.133 54.2773 130.254 53.4336 130.496 52.6836C130.738 51.9258 131.078 51.2812 131.516 50.75C131.953 50.2109 132.473 49.8008 133.074 49.5195C133.684 49.2305 134.363 49.0859 135.113 49.0859C135.707 49.0859 136.25 49.1719 136.742 49.3438C137.234 49.5156 137.656 49.7891 138.008 50.1641C138.367 50.5391 138.641 51.0352 138.828 51.6523C139.023 52.2695 139.121 53.0234 139.121 53.9141V62H135.723V53.9023C135.723 53.3398 135.645 52.9023 135.488 52.5898C135.332 52.2773 135.102 52.0586 134.797 51.9336C134.5 51.8008 134.133 51.7344 133.695 51.7344C133.242 51.7344 132.848 51.8242 132.512 52.0039C132.184 52.1836 131.91 52.4336 131.691 52.7539C131.48 53.0664 131.32 53.4336 131.211 53.8555C131.102 54.2773 131.047 54.7305 131.047 55.2148ZM143.504 44.9375H146.48L150.863 57.4648L155.246 44.9375H158.223L152.059 62H149.668L143.504 44.9375ZM141.898 44.9375H144.863L145.402 57.1484V62H141.898V44.9375ZM156.863 44.9375H159.84V62H156.324V57.1484L156.863 44.9375ZM166.473 60.5703L169.836 49.3203H173.457L168.359 63.9102C168.25 64.2305 168.102 64.5742 167.914 64.9414C167.734 65.3086 167.488 65.6562 167.176 65.9844C166.871 66.3203 166.484 66.5938 166.016 66.8047C165.555 67.0156 164.988 67.1211 164.316 67.1211C163.996 67.1211 163.734 67.1016 163.531 67.0625C163.328 67.0234 163.086 66.9688 162.805 66.8984V64.4258C162.891 64.4258 162.98 64.4258 163.074 64.4258C163.168 64.4336 163.258 64.4375 163.344 64.4375C163.789 64.4375 164.152 64.3867 164.434 64.2852C164.715 64.1836 164.941 64.0273 165.113 63.8164C165.285 63.6133 165.422 63.3477 165.523 63.0195L166.473 60.5703ZM165.066 49.3203L167.82 58.5078L168.301 62.082L166.004 62.3281L161.445 49.3203H165.066ZM179.129 59.293L182.527 44.9375H184.426L184.859 47.3281L181.238 62H179.199L179.129 59.293ZM177.383 44.9375L180.195 59.293L179.961 62H177.688L173.902 44.9375H177.383ZM187.848 59.2344L190.625 44.9375H194.105L190.332 62H188.059L187.848 59.2344ZM185.492 44.9375L188.914 59.3516L188.82 62H186.781L183.137 47.3164L183.605 44.9375H185.492ZM202.25 59.1406V53.4922C202.25 53.0859 202.184 52.7383 202.051 52.4492C201.918 52.1523 201.711 51.9219 201.43 51.7578C201.156 51.5938 200.801 51.5117 200.363 51.5117C199.988 51.5117 199.664 51.5781 199.391 51.7109C199.117 51.8359 198.906 52.0195 198.758 52.2617C198.609 52.4961 198.535 52.7734 198.535 53.0938H195.16C195.16 52.5547 195.285 52.043 195.535 51.5586C195.785 51.0742 196.148 50.6484 196.625 50.2812C197.102 49.9062 197.668 49.6133 198.324 49.4023C198.988 49.1914 199.73 49.0859 200.551 49.0859C201.535 49.0859 202.41 49.25 203.176 49.5781C203.941 49.9062 204.543 50.3984 204.98 51.0547C205.426 51.7109 205.648 52.5312 205.648 53.5156V58.9414C205.648 59.6367 205.691 60.207 205.777 60.6523C205.863 61.0898 205.988 61.4727 206.152 61.8008V62H202.742C202.578 61.6562 202.453 61.2266 202.367 60.7109C202.289 60.1875 202.25 59.6641 202.25 59.1406ZM202.695 54.2773L202.719 56.1875H200.832C200.387 56.1875 200 56.2383 199.672 56.3398C199.344 56.4414 199.074 56.5859 198.863 56.7734C198.652 56.9531 198.496 57.1641 198.395 57.4062C198.301 57.6484 198.254 57.9141 198.254 58.2031C198.254 58.4922 198.32 58.7539 198.453 58.9883C198.586 59.2148 198.777 59.3945 199.027 59.5273C199.277 59.6523 199.57 59.7148 199.906 59.7148C200.414 59.7148 200.855 59.6133 201.23 59.4102C201.605 59.207 201.895 58.957 202.098 58.6602C202.309 58.3633 202.418 58.082 202.426 57.8164L203.316 59.2461C203.191 59.5664 203.02 59.8984 202.801 60.2422C202.59 60.5859 202.32 60.9102 201.992 61.2148C201.664 61.5117 201.27 61.7578 200.809 61.9531C200.348 62.1406 199.801 62.2344 199.168 62.2344C198.363 62.2344 197.633 62.0742 196.977 61.7539C196.328 61.4258 195.812 60.9766 195.43 60.4062C195.055 59.8281 194.867 59.1719 194.867 58.4375C194.867 57.7734 194.992 57.1836 195.242 56.668C195.492 56.1523 195.859 55.7188 196.344 55.3672C196.836 55.0078 197.449 54.7383 198.184 54.5586C198.918 54.3711 199.77 54.2773 200.738 54.2773H202.695ZM211.824 60.5703L215.188 49.3203H218.809L213.711 63.9102C213.602 64.2305 213.453 64.5742 213.266 64.9414C213.086 65.3086 212.84 65.6562 212.527 65.9844C212.223 66.3203 211.836 66.5938 211.367 66.8047C210.906 67.0156 210.34 67.1211 209.668 67.1211C209.348 67.1211 209.086 67.1016 208.883 67.0625C208.68 67.0234 208.438 66.9688 208.156 66.8984V64.4258C208.242 64.4258 208.332 64.4258 208.426 64.4258C208.52 64.4336 208.609 64.4375 208.695 64.4375C209.141 64.4375 209.504 64.3867 209.785 64.2852C210.066 64.1836 210.293 64.0273 210.465 63.8164C210.637 63.6133 210.773 63.3477 210.875 63.0195L211.824 60.5703ZM210.418 49.3203L213.172 58.5078L213.652 62.082L211.355 62.3281L206.797 49.3203H210.418Z" fill="#888888"/>
<path d="M101.822 115.1L108.194 86.0078H111.995L114.061 88.4907L107.271 118H103.074L101.822 115.1ZM100.13 86.0078L105.513 115.319L104.129 118H99.2729L92.4834 86.0078H100.13ZM117.554 115.166L122.894 86.0078H130.518L123.729 118H118.895L117.554 115.166ZM114.742 86.0078L121.268 115.275L119.949 118H115.752L108.809 88.4468L110.962 86.0078H114.742ZM141.021 94.2256V118H133.594V94.2256H141.021ZM133.155 88.0952C133.155 87.0405 133.536 86.1763 134.297 85.5024C135.059 84.8286 136.048 84.4917 137.264 84.4917C138.479 84.4917 139.468 84.8286 140.23 85.5024C140.992 86.1763 141.373 87.0405 141.373 88.0952C141.373 89.1499 140.992 90.0142 140.23 90.688C139.468 91.3618 138.479 91.6987 137.264 91.6987C136.048 91.6987 135.059 91.3618 134.297 90.688C133.536 90.0142 133.155 89.1499 133.155 88.0952ZM153.062 100.114V118H145.657V94.2256H152.579L153.062 100.114ZM160.093 94.0498L159.961 100.927C159.668 100.898 159.273 100.861 158.775 100.817C158.277 100.773 157.859 100.751 157.522 100.751C156.658 100.751 155.911 100.854 155.281 101.059C154.666 101.25 154.153 101.542 153.743 101.938C153.348 102.319 153.055 102.802 152.864 103.388C152.688 103.974 152.608 104.655 152.623 105.432L151.282 104.553C151.282 102.956 151.436 101.506 151.744 100.202C152.066 98.8838 152.52 97.7485 153.106 96.7964C153.692 95.8296 154.402 95.0898 155.237 94.5771C156.072 94.0498 157.01 93.7861 158.05 93.7861C158.416 93.7861 158.775 93.8081 159.126 93.8521C159.493 93.896 159.815 93.9619 160.093 94.0498ZM173.716 118.439C171.783 118.439 170.054 118.139 168.531 117.539C167.007 116.923 165.718 116.081 164.664 115.012C163.624 113.942 162.825 112.712 162.269 111.32C161.727 109.929 161.456 108.457 161.456 106.904V106.069C161.456 104.326 161.697 102.714 162.181 101.235C162.664 99.7407 163.382 98.437 164.334 97.3237C165.286 96.2104 166.48 95.3462 167.916 94.731C169.351 94.1011 171.021 93.7861 172.925 93.7861C174.61 93.7861 176.119 94.0571 177.452 94.5991C178.785 95.1411 179.913 95.9175 180.835 96.9282C181.773 97.939 182.483 99.1621 182.967 100.598C183.465 102.033 183.714 103.645 183.714 105.432V108.442H164.29V103.806H176.485V103.234C176.5 102.443 176.36 101.77 176.067 101.213C175.789 100.656 175.379 100.231 174.837 99.9385C174.295 99.6455 173.636 99.499 172.859 99.499C172.054 99.499 171.387 99.6748 170.86 100.026C170.347 100.378 169.944 100.861 169.651 101.477C169.373 102.077 169.175 102.773 169.058 103.564C168.941 104.355 168.882 105.19 168.882 106.069V106.904C168.882 107.783 169 108.581 169.234 109.299C169.483 110.017 169.834 110.632 170.289 111.145C170.757 111.643 171.314 112.031 171.958 112.309C172.618 112.587 173.365 112.727 174.2 112.727C175.21 112.727 176.207 112.536 177.188 112.155C178.169 111.774 179.012 111.145 179.715 110.266L183.077 114.265C182.593 114.953 181.905 115.62 181.011 116.264C180.132 116.909 179.078 117.436 177.847 117.846C176.617 118.242 175.24 118.439 173.716 118.439ZM195.799 118H188.35V92.292C188.35 90.4463 188.724 88.8936 189.471 87.6338C190.218 86.374 191.272 85.4219 192.635 84.7773C193.997 84.1182 195.608 83.7886 197.469 83.7886C198.113 83.7886 198.721 83.8325 199.292 83.9204C199.864 84.0083 200.42 84.1182 200.962 84.25L200.984 89.6992C200.721 89.626 200.45 89.5747 200.171 89.5454C199.893 89.5161 199.549 89.5015 199.139 89.5015C198.421 89.5015 197.813 89.6113 197.315 89.8311C196.817 90.0361 196.436 90.3511 196.172 90.7759C195.923 91.186 195.799 91.6914 195.799 92.292V118ZM200.413 94.2256V99.3672H184.922V94.2256H200.413ZM210.542 100.114V118H203.138V94.2256H210.059L210.542 100.114ZM217.574 94.0498L217.442 100.927C217.149 100.898 216.753 100.861 216.255 100.817C215.757 100.773 215.34 100.751 215.003 100.751C214.139 100.751 213.392 100.854 212.762 101.059C212.146 101.25 211.634 101.542 211.224 101.938C210.828 102.319 210.535 102.802 210.345 103.388C210.169 103.974 210.088 104.655 210.103 105.432L208.763 104.553C208.763 102.956 208.917 101.506 209.224 100.202C209.546 98.8838 210 97.7485 210.586 96.7964C211.172 95.8296 211.883 95.0898 212.718 94.5771C213.553 94.0498 214.49 93.7861 215.53 93.7861C215.896 93.7861 216.255 93.8081 216.607 93.8521C216.973 93.896 217.295 93.9619 217.574 94.0498ZM231.812 112.023V102.224C231.812 101.55 231.717 100.971 231.526 100.488C231.336 100.004 231.036 99.6309 230.625 99.3672C230.215 99.0889 229.666 98.9497 228.978 98.9497C228.421 98.9497 227.945 99.0449 227.549 99.2354C227.154 99.4258 226.854 99.7114 226.648 100.092C226.443 100.473 226.341 100.957 226.341 101.542H218.936C218.936 100.444 219.178 99.4258 219.661 98.4883C220.159 97.5361 220.862 96.7085 221.771 96.0054C222.693 95.3022 223.792 94.7603 225.066 94.3794C226.355 93.9839 227.791 93.7861 229.373 93.7861C231.263 93.7861 232.947 94.1011 234.427 94.731C235.921 95.3608 237.1 96.3057 237.964 97.5654C238.829 98.8105 239.261 100.378 239.261 102.268V112.001C239.261 113.554 239.349 114.733 239.524 115.539C239.7 116.33 239.949 117.026 240.271 117.626V118H232.845C232.493 117.268 232.229 116.374 232.054 115.319C231.893 114.25 231.812 113.151 231.812 112.023ZM232.713 103.476L232.757 107.431H229.483C228.794 107.431 228.208 107.526 227.725 107.717C227.256 107.907 226.875 108.171 226.583 108.508C226.304 108.83 226.099 109.196 225.967 109.606C225.85 110.017 225.792 110.449 225.792 110.903C225.792 111.342 225.894 111.738 226.099 112.089C226.319 112.426 226.612 112.69 226.978 112.88C227.344 113.071 227.754 113.166 228.208 113.166C229.029 113.166 229.725 113.012 230.296 112.705C230.882 112.382 231.329 111.994 231.636 111.54C231.944 111.086 232.098 110.661 232.098 110.266L233.724 113.298C233.431 113.884 233.094 114.477 232.713 115.078C232.347 115.678 231.885 116.235 231.329 116.748C230.787 117.246 230.12 117.656 229.329 117.978C228.538 118.286 227.579 118.439 226.451 118.439C224.986 118.439 223.638 118.139 222.408 117.539C221.192 116.938 220.218 116.103 219.485 115.034C218.753 113.95 218.387 112.705 218.387 111.298C218.387 110.068 218.606 108.969 219.046 108.002C219.5 107.036 220.181 106.215 221.089 105.542C221.998 104.868 223.155 104.355 224.561 104.003C225.967 103.652 227.623 103.476 229.527 103.476H232.713ZM250.84 99.2573V118H243.436V94.2256H250.379L250.84 99.2573ZM249.939 105.3L248.248 105.344C248.248 103.674 248.445 102.136 248.841 100.729C249.236 99.3232 249.822 98.1001 250.599 97.0601C251.375 96.02 252.327 95.2144 253.455 94.6431C254.598 94.0718 255.916 93.7861 257.41 93.7861C258.45 93.7861 259.395 93.9473 260.245 94.2695C261.094 94.5771 261.827 95.0679 262.442 95.7417C263.057 96.4009 263.526 97.2651 263.848 98.3345C264.185 99.3892 264.354 100.656 264.354 102.136V118H256.949V103.081C256.949 102.07 256.832 101.308 256.597 100.795C256.377 100.283 256.055 99.9385 255.63 99.7627C255.206 99.5869 254.686 99.499 254.07 99.499C253.426 99.499 252.847 99.6455 252.334 99.9385C251.822 100.231 251.382 100.642 251.016 101.169C250.665 101.682 250.394 102.29 250.203 102.993C250.027 103.696 249.939 104.465 249.939 105.3ZM263.519 105.3L261.453 105.344C261.453 103.674 261.636 102.136 262.002 100.729C262.383 99.3232 262.947 98.1001 263.694 97.0601C264.456 96.02 265.401 95.2144 266.529 94.6431C267.657 94.0718 268.968 93.7861 270.462 93.7861C271.546 93.7861 272.542 93.9473 273.45 94.2695C274.358 94.5918 275.142 95.1118 275.801 95.8296C276.46 96.5474 276.973 97.4995 277.339 98.686C277.706 99.8579 277.889 101.308 277.889 103.037V118H270.462V103.037C270.462 102.055 270.345 101.315 270.11 100.817C269.891 100.305 269.568 99.9604 269.144 99.7847C268.719 99.5942 268.213 99.499 267.627 99.499C266.924 99.499 266.316 99.6455 265.804 99.9385C265.291 100.231 264.859 100.642 264.507 101.169C264.17 101.682 263.921 102.29 263.76 102.993C263.599 103.696 263.519 104.465 263.519 105.3ZM293.643 118.439C291.709 118.439 289.981 118.139 288.458 117.539C286.934 116.923 285.645 116.081 284.59 115.012C283.55 113.942 282.752 112.712 282.195 111.32C281.653 109.929 281.382 108.457 281.382 106.904V106.069C281.382 104.326 281.624 102.714 282.107 101.235C282.591 99.7407 283.309 98.437 284.261 97.3237C285.213 96.2104 286.407 95.3462 287.842 94.731C289.278 94.1011 290.948 93.7861 292.852 93.7861C294.537 93.7861 296.045 94.0571 297.378 94.5991C298.711 95.1411 299.839 95.9175 300.762 96.9282C301.7 97.939 302.41 99.1621 302.894 100.598C303.392 102.033 303.641 103.645 303.641 105.432V108.442H284.217V103.806H296.412V103.234C296.426 102.443 296.287 101.77 295.994 101.213C295.716 100.656 295.306 100.231 294.764 99.9385C294.222 99.6455 293.562 99.499 292.786 99.499C291.98 99.499 291.314 99.6748 290.787 100.026C290.274 100.378 289.871 100.861 289.578 101.477C289.3 102.077 289.102 102.773 288.985 103.564C288.868 104.355 288.809 105.19 288.809 106.069V106.904C288.809 107.783 288.926 108.581 289.161 109.299C289.41 110.017 289.761 110.632 290.215 111.145C290.684 111.643 291.241 112.031 291.885 112.309C292.544 112.587 293.292 112.727 294.126 112.727C295.137 112.727 296.133 112.536 297.115 112.155C298.096 111.774 298.938 111.145 299.642 110.266L303.003 114.265C302.52 114.953 301.832 115.62 300.938 116.264C300.059 116.909 299.004 117.436 297.774 117.846C296.543 118.242 295.167 118.439 293.643 118.439ZM319.109 111.32C319.109 110.91 318.97 110.559 318.692 110.266C318.428 109.958 317.959 109.68 317.286 109.431C316.612 109.167 315.667 108.903 314.451 108.64C313.294 108.391 312.203 108.061 311.177 107.651C310.167 107.241 309.28 106.743 308.519 106.157C307.757 105.571 307.156 104.875 306.717 104.069C306.292 103.264 306.08 102.341 306.08 101.301C306.08 100.29 306.292 99.3379 306.717 98.4443C307.156 97.5361 307.793 96.7378 308.628 96.0493C309.478 95.3462 310.511 94.7969 311.727 94.4014C312.942 93.9912 314.327 93.7861 315.879 93.7861C318.018 93.7861 319.864 94.1157 321.417 94.7749C322.969 95.4194 324.163 96.3276 324.998 97.4995C325.848 98.6567 326.272 99.9971 326.272 101.521H318.868C318.868 100.92 318.765 100.407 318.56 99.9824C318.37 99.5576 318.055 99.2354 317.615 99.0156C317.176 98.7812 316.59 98.6641 315.857 98.6641C315.345 98.6641 314.876 98.7593 314.451 98.9497C314.041 99.1401 313.711 99.4038 313.462 99.7407C313.213 100.078 313.089 100.473 313.089 100.927C313.089 101.25 313.162 101.542 313.309 101.806C313.47 102.055 313.711 102.29 314.034 102.509C314.356 102.714 314.766 102.905 315.264 103.081C315.762 103.242 316.363 103.388 317.066 103.52C318.663 103.813 320.157 104.23 321.548 104.772C322.94 105.314 324.068 106.083 324.932 107.08C325.811 108.076 326.25 109.416 326.25 111.101C326.25 112.155 326.009 113.129 325.525 114.023C325.042 114.902 324.346 115.678 323.438 116.352C322.53 117.011 321.438 117.524 320.164 117.89C318.89 118.256 317.454 118.439 315.857 118.439C313.587 118.439 311.668 118.037 310.101 117.231C308.533 116.411 307.347 115.385 306.541 114.155C305.75 112.91 305.354 111.65 305.354 110.375H312.254C312.283 111.108 312.459 111.708 312.781 112.177C313.118 112.646 313.565 112.99 314.122 113.21C314.678 113.43 315.323 113.54 316.055 113.54C316.729 113.54 317.286 113.444 317.725 113.254C318.179 113.063 318.523 112.807 318.758 112.485C318.992 112.148 319.109 111.76 319.109 111.32Z" fill="#424241"/>
<path d="M1363 15C1363 6.71573 1356.28 0 1348 0H1134V167H1348C1356.28 167 1363 160.284 1363 152V15Z" fill="#005A9C"/>
<path fill-rule="evenodd" clip-rule="evenodd" d="M1203 49C1203 47.8954 1203.9 47 1205 47H1292.5C1293.6 47 1294.5 47.8954 1294.5 49V118.996C1294.5 120.101 1293.6 120.996 1292.5 120.996H1205C1203.9 120.996 1203 120.101 1203 118.996V49ZM1207 51V55.4945H1290.5V51H1207ZM1290.5 59.4945H1235.44V116.996H1290.5V59.4945ZM1231.44 116.996V59.4945H1207V116.996H1231.44Z" fill="white"/>
<path fill-rule="evenodd" clip-rule="evenodd" d="M1209.97 64.8004C1209.97 63.6958 1210.87 62.8004 1211.97 62.8004H1225.97C1227.08 62.8004 1227.97 63.6958 1227.97 64.8004V84.1956C1227.97 85.3001 1227.08 86.1956 1225.97 86.1956H1211.97C1210.87 86.1956 1209.97 85.3001 1209.97 84.1956V64.8004ZM1213.97 66.8004V82.1956H1223.97V66.8004H1213.97ZM1239.58 65.6964C1239.58 64.5918 1240.47 63.6964 1241.58 63.6964H1284.5C1285.61 63.6964 1286.5 64.5918 1286.5 65.6964V111.905C1286.5 113.01 1285.61 113.905 1284.5 113.905H1241.58C1240.47 113.905 1239.58 113.01 1239.58 111.905V65.6964ZM1243.58 67.6964V109.905H1282.5V67.6964H1243.58ZM1209.81 95.9363C1209.81 94.8317 1210.71 93.9363 1211.81 93.9363H1220.73C1221.84 93.9363 1222.73 94.8317 1222.73 95.9363C1222.73 97.0409 1221.84 97.9363 1220.73 97.9363H1211.81C1210.71 97.9363 1209.81 97.0409 1209.81 95.9363ZM1209.81 102.936C1209.81 101.832 1210.71 100.936 1211.81 100.936H1226.35C1227.46 100.936 1228.35 101.832 1228.35 102.936C1228.35 104.041 1227.46 104.936 1226.35 104.936H1211.81C1210.71 104.936 1209.81 104.041 1209.81 102.936ZM1209.81 109.936C1209.81 108.832 1210.71 107.936 1211.81 107.936H1220.73C1221.84 107.936 1222.73 108.832 1222.73 109.936C1222.73 111.041 1221.84 111.936 1220.73 111.936H1211.81C1210.71 111.936 1209.81 111.041 1209.81 109.936Z" fill="white"/>
</svg>
