<svg width="1363" height="301" viewBox="0 0 1363 301" fill="none" xmlns="http://www.w3.org/2000/svg">
<rect width="1363" height="301" rx="15" fill="#F0F0F0"/>
<path d="M15 0.5H36.5V300.5H15C6.99187 300.5 0.5 294.008 0.5 286V15C0.5 6.99187 6.99187 0.5 15 0.5Z" fill="#005A9C" stroke="black"/>
<path d="M128.067 123.67V125.255C128.067 128.245 127.646 130.93 126.805 133.312C125.981 135.675 124.808 137.698 123.287 139.381C121.765 141.046 119.965 142.326 117.889 143.221C115.812 144.098 113.52 144.537 111.014 144.537C108.489 144.537 106.18 144.098 104.085 143.221C102.008 142.326 100.2 141.046 98.6602 139.381C97.1383 137.698 95.9567 135.675 95.1152 133.312C94.2917 130.93 93.8799 128.245 93.8799 125.255V123.67C93.8799 120.681 94.2917 117.995 95.1152 115.614C95.9567 113.233 97.1294 111.209 98.6333 109.544C100.155 107.861 101.954 106.581 104.031 105.704C106.126 104.809 108.436 104.361 110.96 104.361C113.466 104.361 115.758 104.809 117.835 105.704C119.93 106.581 121.738 107.861 123.26 109.544C124.782 111.209 125.963 113.233 126.805 115.614C127.646 117.995 128.067 120.681 128.067 123.67ZM118.506 125.255V123.617C118.506 121.683 118.336 119.982 117.996 118.514C117.674 117.028 117.19 115.784 116.546 114.781C115.901 113.779 115.105 113.027 114.156 112.525C113.225 112.006 112.16 111.747 110.96 111.747C109.707 111.747 108.615 112.006 107.684 112.525C106.753 113.027 105.974 113.779 105.347 114.781C104.721 115.784 104.246 117.028 103.924 118.514C103.619 119.982 103.467 121.683 103.467 123.617V125.255C103.467 127.171 103.619 128.871 103.924 130.357C104.246 131.826 104.721 133.07 105.347 134.09C105.992 135.111 106.779 135.881 107.71 136.4C108.659 136.919 109.76 137.179 111.014 137.179C112.213 137.179 113.278 136.919 114.209 136.4C115.14 135.881 115.919 135.111 116.546 134.09C117.19 133.07 117.674 131.826 117.996 130.357C118.336 128.871 118.506 127.171 118.506 125.255ZM141.414 121.146V144H132.364V114.942H140.85L141.414 121.146ZM140.34 128.478L138.218 128.531C138.218 126.311 138.487 124.333 139.024 122.596C139.561 120.842 140.322 119.356 141.307 118.138C142.291 116.921 143.464 115.999 144.825 115.372C146.203 114.728 147.734 114.405 149.417 114.405C150.76 114.405 151.986 114.602 153.096 114.996C154.224 115.39 155.191 116.026 155.997 116.903C156.82 117.78 157.447 118.944 157.876 120.394C158.324 121.826 158.548 123.599 158.548 125.711V144H149.444V125.685C149.444 124.521 149.283 123.635 148.96 123.026C148.638 122.399 148.173 121.97 147.564 121.737C146.955 121.504 146.212 121.388 145.335 121.388C144.404 121.388 143.616 121.567 142.972 121.925C142.327 122.283 141.808 122.784 141.414 123.429C141.038 124.055 140.761 124.798 140.582 125.658C140.42 126.517 140.34 127.457 140.34 128.478ZM168.672 104.898H176.353L185.081 132.103L193.809 104.898H201.49L188.196 144H181.966L168.672 104.898ZM164 104.898H171.949L173.426 134.869V144H164V104.898ZM198.213 104.898H206.189V144H196.736V134.869L198.213 104.898ZM220.718 140.589L228.238 114.942H237.959L226.277 148.324C226.027 149.058 225.695 149.846 225.284 150.687C224.872 151.546 224.308 152.361 223.592 153.131C222.876 153.901 221.954 154.527 220.826 155.011C219.716 155.494 218.337 155.736 216.69 155.736C215.813 155.736 215.168 155.691 214.756 155.602C214.362 155.53 213.754 155.396 212.93 155.199V148.727C213.163 148.727 213.36 148.727 213.521 148.727C213.7 148.727 213.897 148.727 214.112 148.727C215.079 148.727 215.848 148.628 216.421 148.431C217.012 148.234 217.46 147.948 217.764 147.572C218.086 147.196 218.337 146.739 218.516 146.202L220.718 140.589ZM218.812 114.942L224.532 135.272L225.525 144.859H219.456L209.117 114.942H218.812ZM249.776 140.455L257.564 104.898H262.21L264.734 107.933L256.436 144H251.307L249.776 140.455ZM247.708 104.898L254.288 140.724L252.596 144H246.661L238.362 104.898H247.708ZM269.004 140.536L275.53 104.898H284.849L276.551 144H270.643L269.004 140.536ZM265.567 104.898L273.543 140.67L271.932 144H266.802L258.316 107.879L260.948 104.898H265.567ZM302.305 136.695V124.718C302.305 123.894 302.189 123.187 301.956 122.596C301.723 122.005 301.356 121.549 300.855 121.227C300.354 120.886 299.682 120.716 298.841 120.716C298.16 120.716 297.579 120.833 297.095 121.065C296.612 121.298 296.245 121.647 295.994 122.113C295.743 122.578 295.618 123.169 295.618 123.885H286.568C286.568 122.542 286.863 121.298 287.454 120.152C288.063 118.989 288.922 117.977 290.032 117.118C291.16 116.258 292.503 115.596 294.061 115.13C295.636 114.647 297.391 114.405 299.324 114.405C301.634 114.405 303.693 114.79 305.501 115.56C307.327 116.33 308.768 117.485 309.825 119.024C310.881 120.546 311.409 122.462 311.409 124.771V136.668C311.409 138.566 311.517 140.007 311.731 140.992C311.946 141.959 312.251 142.809 312.645 143.543V144H303.567C303.138 143.105 302.815 142.013 302.601 140.724C302.404 139.417 302.305 138.074 302.305 136.695ZM303.406 126.249L303.46 131.083H299.458C298.617 131.083 297.901 131.199 297.31 131.432C296.737 131.664 296.272 131.987 295.914 132.398C295.573 132.792 295.323 133.24 295.162 133.741C295.018 134.243 294.947 134.771 294.947 135.326C294.947 135.863 295.072 136.346 295.323 136.776C295.591 137.188 295.949 137.51 296.397 137.743C296.845 137.975 297.346 138.092 297.901 138.092C298.903 138.092 299.754 137.904 300.452 137.528C301.168 137.134 301.714 136.66 302.09 136.104C302.466 135.549 302.654 135.03 302.654 134.547L304.642 138.253C304.284 138.969 303.872 139.694 303.406 140.428C302.959 141.162 302.395 141.843 301.714 142.469C301.052 143.078 300.237 143.579 299.271 143.973C298.304 144.349 297.131 144.537 295.752 144.537C293.962 144.537 292.315 144.17 290.811 143.436C289.325 142.702 288.134 141.681 287.239 140.375C286.344 139.05 285.896 137.528 285.896 135.809C285.896 134.305 286.165 132.962 286.702 131.781C287.257 130.599 288.09 129.597 289.2 128.773C290.31 127.949 291.724 127.323 293.443 126.893C295.162 126.463 297.185 126.249 299.512 126.249H303.406ZM324.917 140.589L332.437 114.942H342.159L330.477 148.324C330.226 149.058 329.895 149.846 329.483 150.687C329.071 151.546 328.507 152.361 327.791 153.131C327.075 153.901 326.153 154.527 325.025 155.011C323.915 155.494 322.536 155.736 320.889 155.736C320.012 155.736 319.367 155.691 318.956 155.602C318.562 155.53 317.953 155.396 317.129 155.199V148.727C317.362 148.727 317.559 148.727 317.72 148.727C317.899 148.727 318.096 148.727 318.311 148.727C319.278 148.727 320.048 148.628 320.621 148.431C321.211 148.234 321.659 147.948 321.963 147.572C322.286 147.196 322.536 146.739 322.715 146.202L324.917 140.589ZM323.011 114.942L328.731 135.272L329.725 144.859H323.655L313.316 114.942H323.011Z" fill="black"/>
<path d="M97.6396 55.1172L102.835 66.4648L108.03 55.1172H113.619L105.433 70.9424V80H100.237V70.9424L92.0342 55.1172H97.6396ZM113.67 70.9424V70.5835C113.67 69.2277 113.864 67.9801 114.251 66.8408C114.638 65.6901 115.202 64.6932 115.943 63.8501C116.683 63.007 117.595 62.3519 118.677 61.8848C119.76 61.4062 121.001 61.167 122.403 61.167C123.804 61.167 125.052 61.4062 126.146 61.8848C127.239 62.3519 128.156 63.007 128.897 63.8501C129.649 64.6932 130.219 65.6901 130.606 66.8408C130.993 67.9801 131.187 69.2277 131.187 70.5835V70.9424C131.187 72.2868 130.993 73.5343 130.606 74.6851C130.219 75.8244 129.649 76.8213 128.897 77.6758C128.156 78.5189 127.245 79.174 126.163 79.6411C125.08 80.1082 123.838 80.3418 122.437 80.3418C121.036 80.3418 119.788 80.1082 118.694 79.6411C117.612 79.174 116.695 78.5189 115.943 77.6758C115.202 76.8213 114.638 75.8244 114.251 74.6851C113.864 73.5343 113.67 72.2868 113.67 70.9424ZM118.592 70.5835V70.9424C118.592 71.7171 118.66 72.4406 118.797 73.1128C118.934 73.785 119.15 74.3774 119.446 74.8901C119.754 75.3914 120.153 75.7845 120.643 76.0693C121.132 76.3542 121.731 76.4966 122.437 76.4966C123.121 76.4966 123.707 76.3542 124.197 76.0693C124.687 75.7845 125.08 75.3914 125.376 74.8901C125.673 74.3774 125.889 73.785 126.026 73.1128C126.174 72.4406 126.248 71.7171 126.248 70.9424V70.5835C126.248 69.8315 126.174 69.1252 126.026 68.4644C125.889 67.7922 125.667 67.1997 125.359 66.687C125.063 66.1629 124.67 65.7528 124.18 65.4565C123.69 65.1603 123.098 65.0122 122.403 65.0122C121.708 65.0122 121.115 65.1603 120.625 65.4565C120.147 65.7528 119.754 66.1629 119.446 66.687C119.15 67.1997 118.934 67.7922 118.797 68.4644C118.66 69.1252 118.592 69.8315 118.592 70.5835ZM145.149 75.5737V61.5088H150.071V80H145.44L145.149 75.5737ZM145.696 71.7798L147.149 71.7456C147.149 72.9761 147.007 74.1211 146.722 75.1807C146.437 76.2288 146.01 77.1403 145.44 77.915C144.87 78.6784 144.153 79.2765 143.287 79.7095C142.421 80.131 141.401 80.3418 140.228 80.3418C139.327 80.3418 138.496 80.2165 137.732 79.9658C136.98 79.7038 136.331 79.2993 135.784 78.7524C135.249 78.1942 134.827 77.4821 134.52 76.6162C134.223 75.7389 134.075 74.6851 134.075 73.4546V61.5088H138.997V73.4888C138.997 74.0356 139.06 74.4971 139.185 74.873C139.322 75.249 139.51 75.5566 139.749 75.7959C139.988 76.0352 140.267 76.2061 140.586 76.3086C140.917 76.4111 141.281 76.4624 141.68 76.4624C142.694 76.4624 143.492 76.2573 144.073 75.8472C144.665 75.437 145.081 74.8787 145.32 74.1724C145.571 73.4546 145.696 72.6571 145.696 71.7798ZM163.829 74.8901C163.829 74.5369 163.726 74.2179 163.521 73.9331C163.316 73.6483 162.934 73.3862 162.376 73.147C161.829 72.8963 161.037 72.6685 160 72.4634C159.066 72.2583 158.195 72.002 157.386 71.6943C156.588 71.3753 155.893 70.9937 155.301 70.5493C154.72 70.105 154.264 69.5809 153.934 68.9771C153.603 68.3618 153.438 67.6611 153.438 66.875C153.438 66.1003 153.603 65.3711 153.934 64.6875C154.275 64.0039 154.76 63.4001 155.386 62.876C156.024 62.3405 156.799 61.9246 157.71 61.6284C158.633 61.3208 159.67 61.167 160.821 61.167C162.427 61.167 163.806 61.4233 164.957 61.936C166.119 62.4487 167.007 63.1551 167.623 64.0552C168.249 64.9438 168.562 65.9578 168.562 67.0972H163.641C163.641 66.6187 163.538 66.1914 163.333 65.8154C163.139 65.4281 162.832 65.1261 162.41 64.9097C162 64.6818 161.465 64.5679 160.804 64.5679C160.257 64.5679 159.784 64.6647 159.385 64.8584C158.986 65.0407 158.679 65.2913 158.462 65.6104C158.257 65.918 158.155 66.2598 158.155 66.6357C158.155 66.9206 158.212 67.1769 158.326 67.4048C158.451 67.6213 158.65 67.8206 158.924 68.0029C159.197 68.1852 159.55 68.3561 159.983 68.5156C160.428 68.6637 160.975 68.8005 161.624 68.9258C162.957 69.1992 164.148 69.5581 165.196 70.0024C166.244 70.4354 167.076 71.0278 167.691 71.7798C168.306 72.5203 168.614 73.4945 168.614 74.7021C168.614 75.5225 168.431 76.2744 168.067 76.958C167.702 77.6416 167.178 78.2397 166.495 78.7524C165.811 79.2537 164.991 79.6468 164.034 79.9316C163.088 80.2051 162.023 80.3418 160.838 80.3418C159.118 80.3418 157.659 80.0342 156.463 79.4189C155.278 78.8037 154.378 78.0233 153.763 77.0776C153.159 76.1206 152.857 75.1408 152.857 74.1382H157.522C157.545 74.8104 157.716 75.3516 158.035 75.7617C158.366 76.1719 158.781 76.4681 159.283 76.6504C159.795 76.8327 160.348 76.9238 160.94 76.9238C161.578 76.9238 162.108 76.8384 162.53 76.6675C162.951 76.4852 163.27 76.2459 163.487 75.9497C163.715 75.6421 163.829 75.2889 163.829 74.8901ZM180.32 80.3418C178.885 80.3418 177.597 80.1139 176.458 79.6582C175.319 79.1911 174.35 78.5474 173.553 77.7271C172.767 76.9067 172.163 75.9554 171.741 74.873C171.32 73.7793 171.109 72.6172 171.109 71.3867V70.7031C171.109 69.3018 171.308 68.02 171.707 66.8579C172.106 65.6958 172.675 64.6875 173.416 63.833C174.168 62.9785 175.079 62.3234 176.15 61.8677C177.221 61.4006 178.429 61.167 179.773 61.167C181.084 61.167 182.246 61.3835 183.26 61.8164C184.274 62.2493 185.123 62.8646 185.806 63.6621C186.501 64.4596 187.025 65.4167 187.378 66.5332C187.732 67.6383 187.908 68.8688 187.908 70.2246V72.2754H173.211V68.9941H183.072V68.6182C183.072 67.9346 182.946 67.325 182.696 66.7896C182.457 66.2427 182.092 65.8097 181.602 65.4907C181.112 65.1717 180.486 65.0122 179.722 65.0122C179.073 65.0122 178.514 65.1546 178.047 65.4395C177.58 65.7243 177.199 66.123 176.902 66.6357C176.618 67.1484 176.401 67.7523 176.253 68.4473C176.116 69.1309 176.048 69.8828 176.048 70.7031V71.3867C176.048 72.1273 176.15 72.8109 176.355 73.4375C176.572 74.0641 176.874 74.6053 177.261 75.061C177.66 75.5168 178.139 75.87 178.697 76.1206C179.266 76.3713 179.91 76.4966 180.628 76.4966C181.517 76.4966 182.343 76.3257 183.106 75.9839C183.881 75.6307 184.547 75.1009 185.105 74.3945L187.498 76.9922C187.111 77.5505 186.581 78.0859 185.909 78.5986C185.248 79.1113 184.45 79.5329 183.516 79.8633C182.582 80.1823 181.517 80.3418 180.32 80.3418ZM196.983 80H192.027V59.8682C192.027 58.4668 192.3 57.2876 192.847 56.3306C193.405 55.3621 194.186 54.633 195.188 54.1431C196.202 53.6418 197.404 53.3911 198.794 53.3911C199.25 53.3911 199.689 53.4253 200.11 53.4937C200.532 53.5506 200.942 53.6247 201.341 53.7158L201.29 57.4243C201.073 57.3674 200.845 57.3275 200.606 57.3047C200.367 57.2819 200.088 57.2705 199.769 57.2705C199.176 57.2705 198.669 57.373 198.248 57.5781C197.837 57.7718 197.524 58.0623 197.308 58.4497C197.091 58.8371 196.983 59.3099 196.983 59.8682V80ZM200.674 61.5088V64.9951H189.275V61.5088H200.674ZM222.02 69.0796H215.628L215.594 65.5591H220.96C221.906 65.5591 222.68 65.4395 223.284 65.2002C223.888 64.9495 224.338 64.5907 224.634 64.1235C224.942 63.645 225.096 63.064 225.096 62.3804C225.096 61.6056 224.948 60.979 224.651 60.5005C224.367 60.022 223.917 59.6745 223.301 59.458C222.697 59.2415 221.917 59.1333 220.96 59.1333H217.405V80H212.278V55.1172H220.96C222.407 55.1172 223.7 55.2539 224.839 55.5273C225.99 55.8008 226.964 56.2166 227.762 56.7749C228.559 57.3332 229.169 58.0396 229.59 58.894C230.012 59.7371 230.223 60.7397 230.223 61.9019C230.223 62.9272 229.989 63.8729 229.522 64.7388C229.066 65.6047 228.343 66.311 227.352 66.8579C226.372 67.4048 225.09 67.7067 223.506 67.7637L222.02 69.0796ZM221.797 80H214.227L216.226 76.001H221.797C222.697 76.001 223.432 75.8586 224.002 75.5737C224.572 75.2775 224.993 74.8787 225.267 74.3774C225.54 73.8761 225.677 73.3008 225.677 72.6514C225.677 71.9222 225.551 71.2899 225.301 70.7544C225.062 70.2189 224.674 69.8088 224.139 69.5239C223.603 69.2277 222.897 69.0796 222.02 69.0796H217.081L217.115 65.5591H223.267L224.446 66.9434C225.962 66.9206 227.181 67.1883 228.104 67.7466C229.038 68.2935 229.716 69.0055 230.137 69.8828C230.57 70.7601 230.787 71.7 230.787 72.7026C230.787 74.2977 230.439 75.6421 229.744 76.7358C229.049 77.8182 228.029 78.6328 226.685 79.1797C225.352 79.7266 223.723 80 221.797 80ZM244.305 75.8301V67.5928C244.305 67.0003 244.208 66.4933 244.014 66.0718C243.82 65.6388 243.519 65.3027 243.108 65.0635C242.71 64.8242 242.191 64.7046 241.553 64.7046C241.006 64.7046 240.534 64.8014 240.135 64.9951C239.736 65.1774 239.428 65.4451 239.212 65.7983C238.995 66.1401 238.887 66.5446 238.887 67.0117H233.965C233.965 66.2256 234.148 65.4793 234.512 64.7729C234.877 64.0666 235.407 63.4456 236.102 62.9102C236.797 62.3633 237.623 61.936 238.58 61.6284C239.548 61.3208 240.63 61.167 241.827 61.167C243.262 61.167 244.538 61.4062 245.655 61.8848C246.771 62.3633 247.649 63.0811 248.287 64.0381C248.936 64.9951 249.261 66.1914 249.261 67.627V75.5396C249.261 76.5535 249.323 77.3853 249.449 78.0347C249.574 78.6727 249.756 79.231 249.996 79.7095V80H245.022C244.783 79.4987 244.601 78.8721 244.476 78.1201C244.362 77.3568 244.305 76.5934 244.305 75.8301ZM244.954 68.7378L244.988 71.5234H242.237C241.587 71.5234 241.023 71.5975 240.545 71.7456C240.066 71.8937 239.673 72.1045 239.366 72.3779C239.058 72.64 238.83 72.9476 238.682 73.3008C238.545 73.654 238.477 74.0413 238.477 74.4629C238.477 74.8844 238.574 75.2661 238.768 75.6079C238.961 75.9383 239.24 76.2004 239.605 76.394C239.97 76.5763 240.397 76.6675 240.887 76.6675C241.627 76.6675 242.271 76.5194 242.818 76.2231C243.365 75.9269 243.786 75.5623 244.083 75.1294C244.39 74.6965 244.55 74.2863 244.561 73.8989L245.86 75.9839C245.678 76.451 245.427 76.9352 245.108 77.4365C244.8 77.9378 244.407 78.4106 243.929 78.855C243.45 79.2879 242.875 79.6468 242.203 79.9316C241.53 80.2051 240.733 80.3418 239.81 80.3418C238.637 80.3418 237.571 80.1082 236.614 79.6411C235.669 79.1626 234.917 78.5075 234.358 77.6758C233.812 76.8327 233.538 75.8757 233.538 74.8047C233.538 73.8363 233.72 72.9761 234.085 72.2241C234.45 71.4722 234.985 70.8398 235.691 70.3271C236.409 69.8031 237.304 69.41 238.375 69.1479C239.445 68.8745 240.687 68.7378 242.1 68.7378H244.954ZM258.267 77.915L263.172 61.5088H268.453L261.019 82.7856C260.859 83.2528 260.643 83.7541 260.369 84.2896C260.107 84.825 259.748 85.332 259.292 85.8105C258.848 86.3005 258.284 86.6992 257.601 87.0068C256.928 87.3145 256.102 87.4683 255.123 87.4683C254.655 87.4683 254.274 87.4398 253.978 87.3828C253.681 87.3258 253.328 87.2461 252.918 87.1436V83.5376C253.043 83.5376 253.174 83.5376 253.311 83.5376C253.448 83.549 253.579 83.5547 253.704 83.5547C254.354 83.5547 254.883 83.4806 255.293 83.3325C255.704 83.1844 256.034 82.9565 256.285 82.6489C256.535 82.3527 256.735 81.9653 256.883 81.4868L258.267 77.915ZM256.216 61.5088L260.232 74.9072L260.933 80.1196L257.583 80.4785L250.936 61.5088H256.216ZM279.476 61.5088V64.9951H268.709V61.5088H279.476ZM271.375 56.9458H276.297V74.4287C276.297 74.9642 276.365 75.3743 276.502 75.6592C276.65 75.944 276.867 76.1434 277.151 76.2573C277.436 76.3599 277.795 76.4111 278.228 76.4111C278.536 76.4111 278.809 76.3997 279.048 76.377C279.299 76.3428 279.51 76.3086 279.681 76.2744L279.698 79.8975C279.276 80.0342 278.82 80.1424 278.331 80.2222C277.841 80.3019 277.299 80.3418 276.707 80.3418C275.625 80.3418 274.679 80.1652 273.87 79.812C273.073 79.4474 272.457 78.8664 272.024 78.0688C271.591 77.2713 271.375 76.2231 271.375 74.9243V56.9458ZM292.259 75.8301V67.5928C292.259 67.0003 292.162 66.4933 291.968 66.0718C291.775 65.6388 291.473 65.3027 291.062 65.0635C290.664 64.8242 290.145 64.7046 289.507 64.7046C288.96 64.7046 288.488 64.8014 288.089 64.9951C287.69 65.1774 287.382 65.4451 287.166 65.7983C286.95 66.1401 286.841 66.5446 286.841 67.0117H281.919C281.919 66.2256 282.102 65.4793 282.466 64.7729C282.831 64.0666 283.361 63.4456 284.056 62.9102C284.751 62.3633 285.577 61.936 286.534 61.6284C287.502 61.3208 288.584 61.167 289.781 61.167C291.216 61.167 292.492 61.4062 293.609 61.8848C294.725 62.3633 295.603 63.0811 296.241 64.0381C296.89 64.9951 297.215 66.1914 297.215 67.627V75.5396C297.215 76.5535 297.278 77.3853 297.403 78.0347C297.528 78.6727 297.71 79.231 297.95 79.7095V80H292.977C292.737 79.4987 292.555 78.8721 292.43 78.1201C292.316 77.3568 292.259 76.5934 292.259 75.8301ZM292.908 68.7378L292.942 71.5234H290.191C289.542 71.5234 288.978 71.5975 288.499 71.7456C288.021 71.8937 287.627 72.1045 287.32 72.3779C287.012 72.64 286.784 72.9476 286.636 73.3008C286.5 73.654 286.431 74.0413 286.431 74.4629C286.431 74.8844 286.528 75.2661 286.722 75.6079C286.915 75.9383 287.194 76.2004 287.559 76.394C287.924 76.5763 288.351 76.6675 288.841 76.6675C289.581 76.6675 290.225 76.5194 290.772 76.2231C291.319 75.9269 291.74 75.5623 292.037 75.1294C292.344 74.6965 292.504 74.2863 292.515 73.8989L293.814 75.9839C293.632 76.451 293.381 76.9352 293.062 77.4365C292.754 77.9378 292.361 78.4106 291.883 78.855C291.404 79.2879 290.829 79.6468 290.157 79.9316C289.485 80.2051 288.687 80.3418 287.764 80.3418C286.591 80.3418 285.525 80.1082 284.568 79.6411C283.623 79.1626 282.871 78.5075 282.312 77.6758C281.766 76.8327 281.492 75.8757 281.492 74.8047C281.492 73.8363 281.674 72.9761 282.039 72.2241C282.404 71.4722 282.939 70.8398 283.646 70.3271C284.363 69.8031 285.258 69.41 286.329 69.1479C287.4 68.8745 288.641 68.7378 290.054 68.7378H292.908ZM305.931 65.3369V80H300.992V61.5088H305.623L305.931 65.3369ZM305.247 70.105H303.88C303.88 68.8175 304.034 67.6326 304.341 66.5503C304.66 65.4565 305.122 64.5109 305.726 63.7134C306.341 62.9045 307.098 62.2778 307.999 61.8335C308.899 61.3892 309.941 61.167 311.126 61.167C311.946 61.167 312.698 61.2923 313.382 61.543C314.065 61.7822 314.652 62.1639 315.142 62.688C315.643 63.2007 316.031 63.8729 316.304 64.7046C316.578 65.5249 316.714 66.5104 316.714 67.6611V80H311.792V68.208C311.792 67.3649 311.679 66.7155 311.451 66.2598C311.223 65.804 310.898 65.485 310.477 65.3027C310.066 65.1204 309.571 65.0293 308.99 65.0293C308.352 65.0293 307.793 65.1603 307.315 65.4224C306.848 65.6844 306.46 66.049 306.153 66.5161C305.845 66.9718 305.617 67.5073 305.469 68.1226C305.321 68.7378 305.247 69.3986 305.247 70.105ZM316.253 69.541L314.493 69.7632C314.493 68.5555 314.641 67.4333 314.937 66.3965C315.245 65.3597 315.695 64.4482 316.287 63.6621C316.891 62.876 317.637 62.2664 318.526 61.8335C319.415 61.3892 320.44 61.167 321.602 61.167C322.491 61.167 323.3 61.298 324.029 61.5601C324.758 61.8107 325.379 62.2152 325.892 62.7734C326.416 63.3203 326.814 64.0381 327.088 64.9268C327.373 65.8154 327.515 66.9035 327.515 68.1909V80H322.576V68.1909C322.576 67.3364 322.462 66.687 322.234 66.2427C322.018 65.7869 321.699 65.4736 321.277 65.3027C320.867 65.1204 320.377 65.0293 319.808 65.0293C319.215 65.0293 318.697 65.1489 318.252 65.3882C317.808 65.616 317.438 65.9351 317.142 66.3452C316.845 66.7554 316.623 67.2339 316.475 67.7808C316.327 68.3162 316.253 68.903 316.253 69.541Z" fill="#888888"/>
<rect x="92" y="181" width="1179" height="80" rx="13.3333" fill="#CCCCCC"/>
<rect x="107" y="196.333" width="208" height="49.3333" rx="4.66667" fill="#888888" stroke="#888888" stroke-width="4"/>
<path d="M184.5 213.167H190.469C191.635 213.167 192.649 213.34 193.51 213.687C194.372 214.035 195.035 214.549 195.5 215.229C195.972 215.91 196.208 216.75 196.208 217.75C196.208 218.618 196.073 219.344 195.802 219.927C195.531 220.51 195.153 220.993 194.667 221.375C194.188 221.75 193.628 222.059 192.99 222.302L191.792 222.979H186.781L186.76 220.156H190.469C190.934 220.156 191.319 220.073 191.625 219.906C191.931 219.74 192.16 219.503 192.313 219.198C192.472 218.885 192.552 218.514 192.552 218.083C192.552 217.646 192.472 217.271 192.313 216.958C192.153 216.646 191.917 216.406 191.604 216.24C191.299 216.073 190.92 215.99 190.469 215.99H188.156V228.333H184.5V213.167ZM192.802 228.333L189.448 221.625L193.323 221.604L196.719 228.177V228.333H192.802ZM203.708 228.542C202.792 228.542 201.972 228.399 201.25 228.115C200.528 227.823 199.917 227.424 199.417 226.917C198.924 226.41 198.545 225.826 198.281 225.167C198.024 224.507 197.896 223.809 197.896 223.073V222.677C197.896 221.851 198.01 221.087 198.24 220.385C198.469 219.677 198.809 219.059 199.26 218.531C199.712 218.003 200.278 217.594 200.958 217.302C201.639 217.003 202.431 216.854 203.333 216.854C204.132 216.854 204.847 216.983 205.479 217.24C206.111 217.497 206.646 217.865 207.083 218.344C207.528 218.823 207.865 219.403 208.094 220.083C208.33 220.764 208.448 221.528 208.448 222.375V223.802H199.24V221.604H205.021V221.333C205.028 220.958 204.962 220.639 204.823 220.375C204.691 220.111 204.497 219.91 204.24 219.771C203.983 219.632 203.67 219.562 203.302 219.562C202.92 219.562 202.604 219.646 202.354 219.812C202.111 219.979 201.92 220.208 201.781 220.5C201.649 220.785 201.556 221.115 201.5 221.49C201.444 221.865 201.417 222.26 201.417 222.677V223.073C201.417 223.49 201.472 223.868 201.583 224.208C201.701 224.549 201.868 224.84 202.083 225.083C202.306 225.319 202.569 225.503 202.875 225.635C203.187 225.767 203.542 225.833 203.937 225.833C204.417 225.833 204.889 225.743 205.354 225.562C205.819 225.382 206.219 225.083 206.552 224.667L208.146 226.562C207.917 226.889 207.59 227.205 207.167 227.51C206.75 227.816 206.25 228.066 205.667 228.26C205.083 228.448 204.431 228.542 203.708 228.542ZM215.729 225.5V220.854C215.729 220.535 215.684 220.26 215.594 220.031C215.503 219.802 215.361 219.625 215.167 219.5C214.972 219.368 214.712 219.302 214.385 219.302C214.122 219.302 213.896 219.347 213.708 219.437C213.521 219.528 213.378 219.663 213.281 219.844C213.184 220.024 213.135 220.253 213.135 220.531H209.625C209.625 220.01 209.74 219.528 209.969 219.083C210.205 218.632 210.538 218.24 210.969 217.906C211.406 217.573 211.927 217.316 212.531 217.135C213.142 216.948 213.823 216.854 214.573 216.854C215.469 216.854 216.267 217.003 216.969 217.302C217.677 217.601 218.236 218.049 218.646 218.646C219.056 219.236 219.26 219.979 219.26 220.875V225.49C219.26 226.226 219.302 226.785 219.385 227.167C219.469 227.542 219.587 227.872 219.74 228.156V228.333H216.219C216.052 227.986 215.927 227.562 215.844 227.062C215.767 226.556 215.729 226.035 215.729 225.5ZM216.156 221.448L216.177 223.323H214.625C214.299 223.323 214.021 223.368 213.792 223.458C213.569 223.549 213.389 223.674 213.25 223.833C213.118 223.986 213.021 224.16 212.958 224.354C212.903 224.549 212.875 224.753 212.875 224.969C212.875 225.177 212.924 225.365 213.021 225.531C213.125 225.691 213.264 225.816 213.438 225.906C213.611 225.997 213.806 226.042 214.021 226.042C214.41 226.042 214.74 225.969 215.01 225.823C215.288 225.67 215.5 225.486 215.646 225.271C215.792 225.056 215.865 224.854 215.865 224.667L216.635 226.104C216.497 226.382 216.337 226.663 216.156 226.948C215.983 227.233 215.764 227.497 215.5 227.74C215.243 227.976 214.927 228.17 214.552 228.323C214.177 228.469 213.722 228.542 213.188 228.542C212.493 228.542 211.854 228.399 211.271 228.115C210.694 227.83 210.233 227.434 209.885 226.927C209.538 226.413 209.365 225.823 209.365 225.156C209.365 224.573 209.469 224.052 209.677 223.594C209.892 223.135 210.215 222.747 210.646 222.427C211.076 222.108 211.625 221.865 212.292 221.698C212.958 221.531 213.743 221.448 214.646 221.448H216.156ZM225.969 225.833C226.295 225.833 226.573 225.774 226.802 225.656C227.038 225.531 227.215 225.358 227.333 225.135C227.458 224.906 227.517 224.632 227.51 224.312H230.813C230.819 225.16 230.611 225.903 230.188 226.542C229.771 227.174 229.201 227.667 228.479 228.021C227.764 228.368 226.955 228.542 226.052 228.542C225.17 228.542 224.399 228.399 223.74 228.115C223.08 227.823 222.528 227.42 222.083 226.906C221.646 226.385 221.316 225.778 221.094 225.083C220.878 224.389 220.771 223.635 220.771 222.823V222.583C220.771 221.771 220.878 221.017 221.094 220.323C221.316 219.622 221.646 219.014 222.083 218.5C222.528 217.979 223.076 217.576 223.729 217.292C224.389 217 225.156 216.854 226.031 216.854C226.969 216.854 227.795 217.031 228.51 217.385C229.233 217.74 229.799 218.253 230.208 218.927C230.618 219.601 230.819 220.417 230.813 221.375H227.51C227.517 221.035 227.465 220.729 227.354 220.458C227.243 220.187 227.069 219.972 226.833 219.812C226.604 219.646 226.309 219.562 225.948 219.562C225.587 219.562 225.295 219.642 225.073 219.802C224.851 219.962 224.681 220.184 224.563 220.469C224.451 220.747 224.375 221.066 224.333 221.427C224.299 221.788 224.281 222.174 224.281 222.583V222.823C224.281 223.24 224.299 223.632 224.333 224C224.375 224.361 224.455 224.681 224.573 224.958C224.691 225.229 224.861 225.444 225.083 225.604C225.306 225.757 225.601 225.833 225.969 225.833ZM238.25 217.062V219.5H231.458V217.062H238.25ZM232.885 214.26H236.396V224.656C236.396 224.955 236.431 225.187 236.5 225.354C236.569 225.514 236.688 225.628 236.854 225.698C237.028 225.76 237.257 225.792 237.542 225.792C237.743 225.792 237.91 225.788 238.042 225.781C238.174 225.767 238.299 225.75 238.417 225.729V228.24C238.118 228.337 237.806 228.41 237.479 228.458C237.153 228.514 236.806 228.542 236.438 228.542C235.688 228.542 235.045 228.424 234.51 228.187C233.983 227.951 233.58 227.58 233.302 227.073C233.024 226.566 232.885 225.906 232.885 225.094V214.26Z" fill="white"/>
<rect x="339" y="196.333" width="208" height="49.3333" rx="4.66667" fill="#888888" stroke="#888888" stroke-width="4"/>
<path d="M382.833 213.167H388.802C389.969 213.167 390.983 213.34 391.844 213.687C392.705 214.035 393.368 214.549 393.833 215.229C394.306 215.91 394.542 216.75 394.542 217.75C394.542 218.618 394.406 219.344 394.135 219.927C393.865 220.51 393.486 220.993 393 221.375C392.521 221.75 391.962 222.059 391.323 222.302L390.125 222.979H385.115L385.094 220.156H388.802C389.267 220.156 389.653 220.073 389.958 219.906C390.264 219.74 390.493 219.503 390.646 219.198C390.806 218.885 390.885 218.514 390.885 218.083C390.885 217.646 390.806 217.271 390.646 216.958C390.486 216.646 390.25 216.406 389.937 216.24C389.632 216.073 389.253 215.99 388.802 215.99H386.49V228.333H382.833V213.167ZM391.135 228.333L387.781 221.625L391.656 221.604L395.052 228.177V228.333H391.135ZM402.042 228.542C401.125 228.542 400.306 228.399 399.583 228.115C398.861 227.823 398.25 227.424 397.75 226.917C397.257 226.41 396.878 225.826 396.615 225.167C396.358 224.507 396.229 223.809 396.229 223.073V222.677C396.229 221.851 396.344 221.087 396.573 220.385C396.802 219.677 397.142 219.059 397.594 218.531C398.045 218.003 398.611 217.594 399.292 217.302C399.972 217.003 400.764 216.854 401.667 216.854C402.465 216.854 403.181 216.983 403.813 217.24C404.444 217.497 404.979 217.865 405.417 218.344C405.861 218.823 406.198 219.403 406.427 220.083C406.663 220.764 406.781 221.528 406.781 222.375V223.802H397.573V221.604H403.354V221.333C403.361 220.958 403.295 220.639 403.156 220.375C403.024 220.111 402.83 219.91 402.573 219.771C402.316 219.632 402.003 219.562 401.635 219.562C401.253 219.562 400.938 219.646 400.688 219.812C400.444 219.979 400.253 220.208 400.115 220.5C399.983 220.785 399.889 221.115 399.833 221.49C399.778 221.865 399.75 222.26 399.75 222.677V223.073C399.75 223.49 399.806 223.868 399.917 224.208C400.035 224.549 400.201 224.84 400.417 225.083C400.639 225.319 400.903 225.503 401.208 225.635C401.521 225.767 401.875 225.833 402.271 225.833C402.75 225.833 403.222 225.743 403.688 225.562C404.153 225.382 404.552 225.083 404.885 224.667L406.479 226.562C406.25 226.889 405.924 227.205 405.5 227.51C405.083 227.816 404.583 228.066 404 228.26C403.417 228.448 402.764 228.542 402.042 228.542ZM414.063 225.5V220.854C414.063 220.535 414.017 220.26 413.927 220.031C413.837 219.802 413.694 219.625 413.5 219.5C413.306 219.368 413.045 219.302 412.719 219.302C412.455 219.302 412.229 219.347 412.042 219.437C411.854 219.528 411.712 219.663 411.615 219.844C411.517 220.024 411.469 220.253 411.469 220.531H407.958C407.958 220.01 408.073 219.528 408.302 219.083C408.538 218.632 408.872 218.24 409.302 217.906C409.74 217.573 410.26 217.316 410.865 217.135C411.476 216.948 412.156 216.854 412.906 216.854C413.802 216.854 414.601 217.003 415.302 217.302C416.01 217.601 416.569 218.049 416.979 218.646C417.389 219.236 417.594 219.979 417.594 220.875V225.49C417.594 226.226 417.635 226.785 417.719 227.167C417.802 227.542 417.92 227.872 418.073 228.156V228.333H414.552C414.385 227.986 414.26 227.562 414.177 227.062C414.101 226.556 414.063 226.035 414.063 225.5ZM414.49 221.448L414.51 223.323H412.958C412.632 223.323 412.354 223.368 412.125 223.458C411.903 223.549 411.722 223.674 411.583 223.833C411.451 223.986 411.354 224.16 411.292 224.354C411.236 224.549 411.208 224.753 411.208 224.969C411.208 225.177 411.257 225.365 411.354 225.531C411.458 225.691 411.597 225.816 411.771 225.906C411.944 225.997 412.139 226.042 412.354 226.042C412.743 226.042 413.073 225.969 413.344 225.823C413.622 225.67 413.833 225.486 413.979 225.271C414.125 225.056 414.198 224.854 414.198 224.667L414.969 226.104C414.83 226.382 414.67 226.663 414.49 226.948C414.316 227.233 414.097 227.497 413.833 227.74C413.576 227.976 413.26 228.17 412.885 228.323C412.51 228.469 412.056 228.542 411.521 228.542C410.826 228.542 410.188 228.399 409.604 228.115C409.028 227.83 408.566 227.434 408.219 226.927C407.872 226.413 407.698 225.823 407.698 225.156C407.698 224.573 407.802 224.052 408.01 223.594C408.226 223.135 408.549 222.747 408.979 222.427C409.41 222.108 409.958 221.865 410.625 221.698C411.292 221.531 412.076 221.448 412.979 221.448H414.49ZM424.302 225.833C424.628 225.833 424.906 225.774 425.135 225.656C425.372 225.531 425.549 225.358 425.667 225.135C425.792 224.906 425.851 224.632 425.844 224.312H429.146C429.153 225.16 428.944 225.903 428.521 226.542C428.104 227.174 427.535 227.667 426.812 228.021C426.097 228.368 425.288 228.542 424.385 228.542C423.503 228.542 422.733 228.399 422.073 228.115C421.413 227.823 420.861 227.42 420.417 226.906C419.979 226.385 419.649 225.778 419.427 225.083C419.212 224.389 419.104 223.635 419.104 222.823V222.583C419.104 221.771 419.212 221.017 419.427 220.323C419.649 219.622 419.979 219.014 420.417 218.5C420.861 217.979 421.41 217.576 422.062 217.292C422.722 217 423.49 216.854 424.365 216.854C425.302 216.854 426.128 217.031 426.844 217.385C427.566 217.74 428.132 218.253 428.542 218.927C428.951 219.601 429.153 220.417 429.146 221.375H425.844C425.851 221.035 425.799 220.729 425.687 220.458C425.576 220.187 425.403 219.972 425.167 219.812C424.937 219.646 424.642 219.562 424.281 219.562C423.92 219.562 423.628 219.642 423.406 219.802C423.184 219.962 423.014 220.184 422.896 220.469C422.785 220.747 422.708 221.066 422.667 221.427C422.632 221.788 422.615 222.174 422.615 222.583V222.823C422.615 223.24 422.632 223.632 422.667 224C422.708 224.361 422.788 224.681 422.906 224.958C423.024 225.229 423.194 225.444 423.417 225.604C423.639 225.757 423.934 225.833 424.302 225.833ZM436.583 217.062V219.5H429.792V217.062H436.583ZM431.219 214.26H434.729V224.656C434.729 224.955 434.764 225.187 434.833 225.354C434.903 225.514 435.021 225.628 435.188 225.698C435.361 225.76 435.59 225.792 435.875 225.792C436.076 225.792 436.243 225.788 436.375 225.781C436.507 225.767 436.632 225.75 436.75 225.729V228.24C436.451 228.337 436.139 228.41 435.813 228.458C435.486 228.514 435.139 228.542 434.771 228.542C434.021 228.542 433.378 228.424 432.844 228.187C432.316 227.951 431.913 227.58 431.635 227.073C431.358 226.566 431.219 225.906 431.219 225.094V214.26ZM456.125 213.167V228.333H452.479L447.115 218.896V228.333H443.458V213.167H447.115L452.479 222.604V213.167H456.125ZM464.125 225.5V220.854C464.125 220.535 464.08 220.26 463.99 220.031C463.899 219.802 463.757 219.625 463.563 219.5C463.368 219.368 463.108 219.302 462.781 219.302C462.517 219.302 462.292 219.347 462.104 219.437C461.917 219.528 461.774 219.663 461.677 219.844C461.58 220.024 461.531 220.253 461.531 220.531H458.021C458.021 220.01 458.135 219.528 458.365 219.083C458.601 218.632 458.934 218.24 459.365 217.906C459.802 217.573 460.323 217.316 460.927 217.135C461.538 216.948 462.219 216.854 462.969 216.854C463.865 216.854 464.663 217.003 465.365 217.302C466.073 217.601 466.632 218.049 467.042 218.646C467.451 219.236 467.656 219.979 467.656 220.875V225.49C467.656 226.226 467.698 226.785 467.781 227.167C467.865 227.542 467.983 227.872 468.135 228.156V228.333H464.615C464.448 227.986 464.323 227.562 464.24 227.062C464.163 226.556 464.125 226.035 464.125 225.5ZM464.552 221.448L464.573 223.323H463.021C462.694 223.323 462.417 223.368 462.188 223.458C461.965 223.549 461.785 223.674 461.646 223.833C461.514 223.986 461.417 224.16 461.354 224.354C461.299 224.549 461.271 224.753 461.271 224.969C461.271 225.177 461.319 225.365 461.417 225.531C461.521 225.691 461.66 225.816 461.833 225.906C462.007 225.997 462.201 226.042 462.417 226.042C462.806 226.042 463.135 225.969 463.406 225.823C463.684 225.67 463.896 225.486 464.042 225.271C464.188 225.056 464.26 224.854 464.26 224.667L465.031 226.104C464.892 226.382 464.733 226.663 464.552 226.948C464.378 227.233 464.16 227.497 463.896 227.74C463.639 227.976 463.323 228.17 462.948 228.323C462.573 228.469 462.118 228.542 461.583 228.542C460.889 228.542 460.25 228.399 459.667 228.115C459.09 227.83 458.628 227.434 458.281 226.927C457.934 226.413 457.76 225.823 457.76 225.156C457.76 224.573 457.865 224.052 458.073 223.594C458.288 223.135 458.611 222.747 459.042 222.427C459.472 222.108 460.021 221.865 460.688 221.698C461.354 221.531 462.139 221.448 463.042 221.448H464.552ZM475.542 217.062V219.5H468.75V217.062H475.542ZM470.177 214.26H473.687V224.656C473.687 224.955 473.722 225.187 473.792 225.354C473.861 225.514 473.979 225.628 474.146 225.698C474.319 225.76 474.549 225.792 474.833 225.792C475.035 225.792 475.201 225.788 475.333 225.781C475.465 225.767 475.59 225.75 475.708 225.729V228.24C475.41 228.337 475.097 228.41 474.771 228.458C474.444 228.514 474.097 228.542 473.729 228.542C472.979 228.542 472.337 228.424 471.802 228.187C471.274 227.951 470.872 227.58 470.594 227.073C470.316 226.566 470.177 225.906 470.177 225.094V214.26ZM480.646 217.062V228.333H477.125V217.062H480.646ZM476.917 214.156C476.917 213.656 477.097 213.247 477.458 212.927C477.819 212.608 478.288 212.448 478.865 212.448C479.441 212.448 479.91 212.608 480.271 212.927C480.632 213.247 480.813 213.656 480.813 214.156C480.813 214.656 480.632 215.066 480.271 215.385C479.91 215.705 479.441 215.865 478.865 215.865C478.288 215.865 477.819 215.705 477.458 215.385C477.097 215.066 476.917 214.656 476.917 214.156ZM486.875 225.927L489.094 217.062H492.792L489.104 228.333H486.917L486.875 225.927ZM485.563 217.062L487.75 225.927L487.729 228.333H485.531L481.854 217.062H485.563ZM499.146 228.542C498.229 228.542 497.41 228.399 496.688 228.115C495.965 227.823 495.354 227.424 494.854 226.917C494.361 226.41 493.983 225.826 493.719 225.167C493.462 224.507 493.333 223.809 493.333 223.073V222.677C493.333 221.851 493.448 221.087 493.677 220.385C493.906 219.677 494.247 219.059 494.698 218.531C495.149 218.003 495.715 217.594 496.396 217.302C497.076 217.003 497.868 216.854 498.771 216.854C499.569 216.854 500.285 216.983 500.917 217.24C501.549 217.497 502.083 217.865 502.521 218.344C502.965 218.823 503.302 219.403 503.531 220.083C503.767 220.764 503.885 221.528 503.885 222.375V223.802H494.677V221.604H500.458V221.333C500.465 220.958 500.399 220.639 500.26 220.375C500.128 220.111 499.934 219.91 499.677 219.771C499.42 219.632 499.108 219.562 498.74 219.562C498.358 219.562 498.042 219.646 497.792 219.812C497.549 219.979 497.358 220.208 497.219 220.5C497.087 220.785 496.993 221.115 496.938 221.49C496.882 221.865 496.854 222.26 496.854 222.677V223.073C496.854 223.49 496.91 223.868 497.021 224.208C497.139 224.549 497.306 224.84 497.521 225.083C497.743 225.319 498.007 225.503 498.313 225.635C498.625 225.767 498.979 225.833 499.375 225.833C499.854 225.833 500.326 225.743 500.792 225.562C501.257 225.382 501.656 225.083 501.99 224.667L503.583 226.562C503.354 226.889 503.028 227.205 502.604 227.51C502.188 227.816 501.688 228.066 501.104 228.26C500.521 228.448 499.868 228.542 499.146 228.542Z" fill="white"/>
<rect x="571" y="196.333" width="208" height="49.3333" rx="4.66667" fill="#888888" stroke="#888888" stroke-width="4"/>
<path d="M651.937 213.167V228.333H648.292L642.927 218.896V228.333H639.271V213.167H642.927L648.292 222.604V213.167H651.937ZM653.646 222.812V222.594C653.646 221.767 653.764 221.007 654 220.312C654.236 219.611 654.583 219.003 655.042 218.49C655.5 217.976 656.066 217.576 656.74 217.292C657.413 217 658.191 216.854 659.073 216.854C659.962 216.854 660.743 217 661.417 217.292C662.097 217.576 662.667 217.976 663.125 218.49C663.583 219.003 663.931 219.611 664.167 220.312C664.403 221.007 664.521 221.767 664.521 222.594V222.812C664.521 223.632 664.403 224.392 664.167 225.094C663.931 225.788 663.583 226.396 663.125 226.917C662.667 227.431 662.101 227.83 661.427 228.115C660.753 228.399 659.976 228.542 659.094 228.542C658.212 228.542 657.431 228.399 656.75 228.115C656.069 227.83 655.5 227.431 655.042 226.917C654.583 226.396 654.236 225.788 654 225.094C653.764 224.392 653.646 223.632 653.646 222.812ZM657.156 222.594V222.812C657.156 223.236 657.187 223.632 657.25 224C657.312 224.368 657.417 224.691 657.562 224.969C657.708 225.24 657.906 225.451 658.156 225.604C658.406 225.757 658.719 225.833 659.094 225.833C659.462 225.833 659.767 225.757 660.01 225.604C660.26 225.451 660.458 225.24 660.604 224.969C660.75 224.691 660.854 224.368 660.917 224C660.979 223.632 661.01 223.236 661.01 222.812V222.594C661.01 222.184 660.979 221.799 660.917 221.437C660.854 221.069 660.75 220.747 660.604 220.469C660.458 220.184 660.26 219.962 660.01 219.802C659.76 219.642 659.448 219.562 659.073 219.562C658.705 219.562 658.396 219.642 658.146 219.802C657.903 219.962 657.708 220.184 657.562 220.469C657.417 220.747 657.312 221.069 657.25 221.437C657.187 221.799 657.156 222.184 657.156 222.594ZM672.563 225.75V212.333H676.094V228.333H672.927L672.563 225.75ZM665.646 222.833V222.615C665.646 221.76 665.74 220.983 665.927 220.281C666.115 219.573 666.392 218.965 666.76 218.458C667.128 217.944 667.587 217.549 668.135 217.271C668.684 216.993 669.316 216.854 670.031 216.854C670.67 216.854 671.229 217.003 671.708 217.302C672.188 217.594 672.597 218.003 672.938 218.531C673.278 219.059 673.556 219.677 673.771 220.385C673.986 221.087 674.149 221.844 674.26 222.656V222.917C674.149 223.681 673.986 224.403 673.771 225.083C673.556 225.757 673.278 226.354 672.938 226.875C672.597 227.396 672.184 227.806 671.698 228.104C671.219 228.396 670.656 228.542 670.01 228.542C669.295 228.542 668.663 228.399 668.115 228.115C667.573 227.83 667.118 227.431 666.75 226.917C666.389 226.403 666.115 225.799 665.927 225.104C665.74 224.41 665.646 223.653 665.646 222.833ZM669.156 222.615V222.833C669.156 223.257 669.184 223.649 669.24 224.01C669.295 224.372 669.389 224.691 669.521 224.969C669.66 225.24 669.84 225.451 670.063 225.604C670.292 225.757 670.573 225.833 670.906 225.833C671.358 225.833 671.729 225.726 672.021 225.51C672.319 225.295 672.538 224.99 672.677 224.594C672.823 224.198 672.885 223.733 672.865 223.198V222.375C672.878 221.917 672.847 221.514 672.771 221.167C672.694 220.812 672.573 220.517 672.406 220.281C672.247 220.045 672.042 219.868 671.792 219.75C671.549 219.625 671.26 219.562 670.927 219.562C670.601 219.562 670.323 219.639 670.094 219.792C669.872 219.944 669.691 220.16 669.552 220.437C669.413 220.708 669.313 221.031 669.25 221.406C669.188 221.774 669.156 222.177 669.156 222.615ZM683.542 228.542C682.625 228.542 681.806 228.399 681.083 228.115C680.361 227.823 679.75 227.424 679.25 226.917C678.757 226.41 678.378 225.826 678.115 225.167C677.858 224.507 677.729 223.809 677.729 223.073V222.677C677.729 221.851 677.844 221.087 678.073 220.385C678.302 219.677 678.642 219.059 679.094 218.531C679.545 218.003 680.111 217.594 680.792 217.302C681.472 217.003 682.264 216.854 683.167 216.854C683.965 216.854 684.681 216.983 685.313 217.24C685.944 217.497 686.479 217.865 686.917 218.344C687.361 218.823 687.698 219.403 687.927 220.083C688.163 220.764 688.281 221.528 688.281 222.375V223.802H679.073V221.604H684.854V221.333C684.861 220.958 684.795 220.639 684.656 220.375C684.524 220.111 684.33 219.91 684.073 219.771C683.816 219.632 683.503 219.562 683.135 219.562C682.753 219.562 682.438 219.646 682.188 219.812C681.944 219.979 681.753 220.208 681.615 220.5C681.483 220.785 681.389 221.115 681.333 221.49C681.278 221.865 681.25 222.26 681.25 222.677V223.073C681.25 223.49 681.306 223.868 681.417 224.208C681.535 224.549 681.701 224.84 681.917 225.083C682.139 225.319 682.403 225.503 682.708 225.635C683.021 225.767 683.375 225.833 683.771 225.833C684.25 225.833 684.722 225.743 685.188 225.562C685.653 225.382 686.052 225.083 686.385 224.667L687.979 226.562C687.75 226.889 687.424 227.205 687 227.51C686.583 227.816 686.083 228.066 685.5 228.26C684.917 228.448 684.264 228.542 683.542 228.542ZM689.938 226.687C689.938 226.187 690.118 225.771 690.479 225.437C690.84 225.097 691.306 224.927 691.875 224.927C692.451 224.927 692.917 225.097 693.271 225.437C693.632 225.771 693.813 226.187 693.813 226.687C693.813 227.187 693.632 227.608 693.271 227.948C692.917 228.281 692.451 228.448 691.875 228.448C691.306 228.448 690.84 228.281 690.479 227.948C690.118 227.608 689.938 227.187 689.938 226.687ZM696.427 217.062H699.948V228.698C699.948 229.601 699.774 230.361 699.427 230.979C699.08 231.604 698.583 232.076 697.937 232.396C697.292 232.722 696.521 232.885 695.625 232.885C695.326 232.885 695.052 232.872 694.802 232.844C694.545 232.823 694.264 232.778 693.958 232.708V230.052C694.139 230.08 694.306 230.101 694.458 230.115C694.611 230.135 694.778 230.146 694.958 230.146C695.278 230.146 695.545 230.094 695.76 229.99C695.976 229.885 696.139 229.726 696.25 229.51C696.368 229.295 696.427 229.024 696.427 228.698V217.062ZM696.167 214.156C696.167 213.656 696.347 213.247 696.708 212.927C697.069 212.608 697.538 212.448 698.115 212.448C698.691 212.448 699.16 212.608 699.521 212.927C699.882 213.247 700.062 213.656 700.062 214.156C700.062 214.656 699.882 215.066 699.521 215.385C699.16 215.705 698.691 215.865 698.115 215.865C697.538 215.865 697.069 215.705 696.708 215.385C696.347 215.066 696.167 214.656 696.167 214.156ZM707.844 225.167C707.844 224.972 707.778 224.806 707.646 224.667C707.521 224.521 707.299 224.389 706.979 224.271C706.66 224.146 706.212 224.021 705.635 223.896C705.087 223.778 704.569 223.622 704.083 223.427C703.604 223.233 703.184 222.997 702.823 222.719C702.462 222.441 702.177 222.111 701.969 221.729C701.767 221.347 701.667 220.91 701.667 220.417C701.667 219.937 701.767 219.486 701.969 219.062C702.177 218.632 702.479 218.253 702.875 217.927C703.278 217.594 703.767 217.333 704.344 217.146C704.92 216.951 705.576 216.854 706.312 216.854C707.326 216.854 708.201 217.01 708.937 217.323C709.674 217.628 710.24 218.059 710.635 218.615C711.038 219.163 711.24 219.799 711.24 220.521H707.729C707.729 220.236 707.681 219.993 707.583 219.792C707.493 219.59 707.344 219.437 707.135 219.333C706.927 219.222 706.649 219.167 706.302 219.167C706.059 219.167 705.837 219.212 705.635 219.302C705.441 219.392 705.285 219.517 705.167 219.677C705.049 219.837 704.99 220.024 704.99 220.24C704.99 220.392 705.024 220.531 705.094 220.656C705.17 220.774 705.285 220.885 705.437 220.99C705.59 221.087 705.785 221.177 706.021 221.26C706.257 221.337 706.542 221.406 706.875 221.469C707.632 221.608 708.34 221.806 709 222.062C709.66 222.319 710.194 222.684 710.604 223.156C711.021 223.628 711.229 224.264 711.229 225.062C711.229 225.562 711.115 226.024 710.885 226.448C710.656 226.865 710.326 227.233 709.896 227.552C709.465 227.865 708.948 228.108 708.344 228.281C707.74 228.455 707.059 228.542 706.302 228.542C705.226 228.542 704.316 228.351 703.573 227.969C702.83 227.58 702.267 227.094 701.885 226.51C701.51 225.92 701.323 225.323 701.323 224.719H704.594C704.608 225.066 704.691 225.351 704.844 225.573C705.003 225.795 705.215 225.958 705.479 226.062C705.743 226.167 706.049 226.219 706.396 226.219C706.715 226.219 706.979 226.174 707.187 226.083C707.403 225.993 707.566 225.872 707.677 225.719C707.788 225.559 707.844 225.375 707.844 225.167Z" fill="white"/>
<rect x="803" y="196.333" width="208" height="49.3333" rx="4.66667" fill="#888888" stroke="#888888" stroke-width="4"/>
<path d="M880.427 225.521V228.333H872.344V225.521H880.427ZM873.646 213.167V228.333H869.99V213.167H873.646ZM879.385 219.187V221.906H872.344V219.187H879.385ZM880.458 213.167V215.99H872.344V213.167H880.458ZM884.74 217.062L886.323 220.167L887.958 217.062H891.604L888.646 222.552L891.76 228.333H888.083L886.323 225L884.573 228.333H880.896L884.01 222.552L881.062 217.062H884.74ZM896.302 219.229V232.667H892.792V217.062H896.062L896.302 219.229ZM903.219 222.562V222.781C903.219 223.601 903.125 224.361 902.937 225.062C902.75 225.764 902.472 226.375 902.104 226.896C901.736 227.417 901.278 227.823 900.729 228.115C900.187 228.399 899.559 228.542 898.844 228.542C898.17 228.542 897.59 228.392 897.104 228.094C896.618 227.795 896.212 227.382 895.885 226.854C895.559 226.326 895.295 225.722 895.094 225.042C894.892 224.361 894.733 223.642 894.615 222.885V222.604C894.733 221.792 894.892 221.038 895.094 220.344C895.295 219.642 895.559 219.031 895.885 218.51C896.212 217.99 896.615 217.583 897.094 217.292C897.58 217 898.16 216.854 898.833 216.854C899.549 216.854 900.177 216.99 900.719 217.26C901.267 217.531 901.726 217.92 902.094 218.427C902.469 218.927 902.75 219.528 902.937 220.229C903.125 220.931 903.219 221.708 903.219 222.562ZM899.708 222.781V222.562C899.708 222.125 899.677 221.726 899.615 221.365C899.552 220.997 899.451 220.677 899.312 220.406C899.181 220.135 899.003 219.927 898.781 219.781C898.559 219.635 898.285 219.562 897.958 219.562C897.583 219.562 897.267 219.622 897.01 219.74C896.76 219.851 896.559 220.024 896.406 220.26C896.26 220.49 896.156 220.778 896.094 221.125C896.038 221.465 896.014 221.865 896.021 222.323V223.177C896.007 223.705 896.059 224.17 896.177 224.573C896.295 224.969 896.5 225.278 896.792 225.5C897.083 225.722 897.479 225.833 897.979 225.833C898.312 225.833 898.59 225.757 898.812 225.604C899.035 225.444 899.212 225.226 899.344 224.948C899.476 224.663 899.569 224.337 899.625 223.969C899.681 223.601 899.708 223.205 899.708 222.781ZM908.323 219.854V228.333H904.812V217.062H908.094L908.323 219.854ZM911.656 216.979L911.594 220.24C911.455 220.226 911.267 220.208 911.031 220.187C910.795 220.167 910.597 220.156 910.437 220.156C910.028 220.156 909.674 220.205 909.375 220.302C909.083 220.392 908.84 220.531 908.646 220.719C908.458 220.899 908.319 221.128 908.229 221.406C908.146 221.684 908.108 222.007 908.115 222.375L907.479 221.958C907.479 221.201 907.552 220.514 907.698 219.896C907.851 219.271 908.066 218.733 908.344 218.281C908.622 217.823 908.958 217.472 909.354 217.229C909.75 216.979 910.194 216.854 910.687 216.854C910.861 216.854 911.031 216.865 911.198 216.885C911.372 216.906 911.524 216.937 911.656 216.979ZM918.115 228.542C917.198 228.542 916.378 228.399 915.656 228.115C914.934 227.823 914.323 227.424 913.823 226.917C913.33 226.41 912.951 225.826 912.687 225.167C912.431 224.507 912.302 223.809 912.302 223.073V222.677C912.302 221.851 912.417 221.087 912.646 220.385C912.875 219.677 913.215 219.059 913.667 218.531C914.118 218.003 914.684 217.594 915.365 217.302C916.045 217.003 916.837 216.854 917.74 216.854C918.538 216.854 919.253 216.983 919.885 217.24C920.517 217.497 921.052 217.865 921.49 218.344C921.934 218.823 922.271 219.403 922.5 220.083C922.736 220.764 922.854 221.528 922.854 222.375V223.802H913.646V221.604H919.427V221.333C919.434 220.958 919.368 220.639 919.229 220.375C919.097 220.111 918.903 219.91 918.646 219.771C918.389 219.632 918.076 219.562 917.708 219.562C917.326 219.562 917.01 219.646 916.76 219.812C916.517 219.979 916.326 220.208 916.187 220.5C916.056 220.785 915.962 221.115 915.906 221.49C915.851 221.865 915.823 222.26 915.823 222.677V223.073C915.823 223.49 915.878 223.868 915.99 224.208C916.108 224.549 916.274 224.84 916.49 225.083C916.712 225.319 916.976 225.503 917.281 225.635C917.594 225.767 917.948 225.833 918.344 225.833C918.823 225.833 919.295 225.743 919.76 225.562C920.226 225.382 920.625 225.083 920.958 224.667L922.552 226.562C922.323 226.889 921.997 227.205 921.573 227.51C921.156 227.816 920.656 228.066 920.073 228.26C919.49 228.448 918.837 228.542 918.115 228.542ZM930.187 225.167C930.187 224.972 930.122 224.806 929.99 224.667C929.865 224.521 929.642 224.389 929.323 224.271C929.003 224.146 928.556 224.021 927.979 223.896C927.431 223.778 926.913 223.622 926.427 223.427C925.948 223.233 925.528 222.997 925.167 222.719C924.806 222.441 924.521 222.111 924.312 221.729C924.111 221.347 924.01 220.91 924.01 220.417C924.01 219.937 924.111 219.486 924.312 219.062C924.521 218.632 924.823 218.253 925.219 217.927C925.622 217.594 926.111 217.333 926.687 217.146C927.264 216.951 927.92 216.854 928.656 216.854C929.67 216.854 930.545 217.01 931.281 217.323C932.017 217.628 932.583 218.059 932.979 218.615C933.382 219.163 933.583 219.799 933.583 220.521H930.073C930.073 220.236 930.024 219.993 929.927 219.792C929.837 219.59 929.687 219.437 929.479 219.333C929.271 219.222 928.993 219.167 928.646 219.167C928.403 219.167 928.181 219.212 927.979 219.302C927.785 219.392 927.628 219.517 927.51 219.677C927.392 219.837 927.333 220.024 927.333 220.24C927.333 220.392 927.368 220.531 927.437 220.656C927.514 220.774 927.628 220.885 927.781 220.99C927.934 221.087 928.128 221.177 928.365 221.26C928.601 221.337 928.885 221.406 929.219 221.469C929.976 221.608 930.684 221.806 931.344 222.062C932.003 222.319 932.538 222.684 932.948 223.156C933.365 223.628 933.573 224.264 933.573 225.062C933.573 225.562 933.458 226.024 933.229 226.448C933 226.865 932.67 227.233 932.24 227.552C931.809 227.865 931.292 228.108 930.687 228.281C930.083 228.455 929.403 228.542 928.646 228.542C927.569 228.542 926.66 228.351 925.917 227.969C925.174 227.58 924.611 227.094 924.229 226.51C923.854 225.92 923.667 225.323 923.667 224.719H926.937C926.951 225.066 927.035 225.351 927.187 225.573C927.347 225.795 927.559 225.958 927.823 226.062C928.087 226.167 928.392 226.219 928.74 226.219C929.059 226.219 929.323 226.174 929.531 226.083C929.747 225.993 929.91 225.872 930.021 225.719C930.132 225.559 930.187 225.375 930.187 225.167ZM941.125 225.167C941.125 224.972 941.059 224.806 940.927 224.667C940.802 224.521 940.58 224.389 940.26 224.271C939.941 224.146 939.493 224.021 938.917 223.896C938.368 223.778 937.851 223.622 937.365 223.427C936.885 223.233 936.465 222.997 936.104 222.719C935.743 222.441 935.458 222.111 935.25 221.729C935.049 221.347 934.948 220.91 934.948 220.417C934.948 219.937 935.049 219.486 935.25 219.062C935.458 218.632 935.76 218.253 936.156 217.927C936.559 217.594 937.049 217.333 937.625 217.146C938.201 216.951 938.858 216.854 939.594 216.854C940.608 216.854 941.483 217.01 942.219 217.323C942.955 217.628 943.521 218.059 943.917 218.615C944.319 219.163 944.521 219.799 944.521 220.521H941.01C941.01 220.236 940.962 219.993 940.865 219.792C940.774 219.59 940.625 219.437 940.417 219.333C940.208 219.222 939.931 219.167 939.583 219.167C939.34 219.167 939.118 219.212 938.917 219.302C938.722 219.392 938.566 219.517 938.448 219.677C938.33 219.837 938.271 220.024 938.271 220.24C938.271 220.392 938.306 220.531 938.375 220.656C938.451 220.774 938.566 220.885 938.719 220.99C938.872 221.087 939.066 221.177 939.302 221.26C939.538 221.337 939.823 221.406 940.156 221.469C940.913 221.608 941.622 221.806 942.281 222.062C942.941 222.319 943.476 222.684 943.885 223.156C944.302 223.628 944.51 224.264 944.51 225.062C944.51 225.562 944.396 226.024 944.167 226.448C943.937 226.865 943.608 227.233 943.177 227.552C942.747 227.865 942.229 228.108 941.625 228.281C941.021 228.455 940.34 228.542 939.583 228.542C938.507 228.542 937.597 228.351 936.854 227.969C936.111 227.58 935.549 227.094 935.167 226.51C934.792 225.92 934.604 225.323 934.604 224.719H937.875C937.889 225.066 937.972 225.351 938.125 225.573C938.285 225.795 938.497 225.958 938.76 226.062C939.024 226.167 939.33 226.219 939.677 226.219C939.997 226.219 940.26 226.174 940.469 226.083C940.684 225.993 940.847 225.872 940.958 225.719C941.069 225.559 941.125 225.375 941.125 225.167Z" fill="white"/>
<rect x="1035" y="196.333" width="208" height="49.3333" rx="4.66667" fill="#888888" stroke="#888888" stroke-width="4"/>
<path d="M1094.66 213.167H1097.64L1101.02 223.719L1104.41 213.167H1107.39L1102.23 228.333H1099.81L1094.66 213.167ZM1092.84 213.167H1095.93L1096.5 224.792V228.333H1092.84V213.167ZM1106.11 213.167H1109.21V228.333H1105.54V224.792L1106.11 213.167ZM1110.95 222.812V222.594C1110.95 221.767 1111.07 221.007 1111.3 220.312C1111.54 219.611 1111.89 219.003 1112.34 218.49C1112.8 217.976 1113.37 217.576 1114.04 217.292C1114.72 217 1115.49 216.854 1116.38 216.854C1117.26 216.854 1118.05 217 1118.72 217.292C1119.4 217.576 1119.97 217.976 1120.43 218.49C1120.89 219.003 1121.23 219.611 1121.47 220.312C1121.7 221.007 1121.82 221.767 1121.82 222.594V222.812C1121.82 223.632 1121.7 224.392 1121.47 225.094C1121.23 225.788 1120.89 226.396 1120.43 226.917C1119.97 227.431 1119.4 227.83 1118.73 228.115C1118.06 228.399 1117.28 228.542 1116.4 228.542C1115.51 228.542 1114.73 228.399 1114.05 228.115C1113.37 227.83 1112.8 227.431 1112.34 226.917C1111.89 226.396 1111.54 225.788 1111.3 225.094C1111.07 224.392 1110.95 223.632 1110.95 222.812ZM1114.46 222.594V222.812C1114.46 223.236 1114.49 223.632 1114.55 224C1114.61 224.368 1114.72 224.691 1114.86 224.969C1115.01 225.24 1115.21 225.451 1115.46 225.604C1115.71 225.757 1116.02 225.833 1116.4 225.833C1116.76 225.833 1117.07 225.757 1117.31 225.604C1117.56 225.451 1117.76 225.24 1117.91 224.969C1118.05 224.691 1118.16 224.368 1118.22 224C1118.28 223.632 1118.31 223.236 1118.31 222.812V222.594C1118.31 222.184 1118.28 221.799 1118.22 221.437C1118.16 221.069 1118.05 220.747 1117.91 220.469C1117.76 220.184 1117.56 219.962 1117.31 219.802C1117.06 219.642 1116.75 219.562 1116.38 219.562C1116.01 219.562 1115.7 219.642 1115.45 219.802C1115.2 219.962 1115.01 220.184 1114.86 220.469C1114.72 220.747 1114.61 221.069 1114.55 221.437C1114.49 221.799 1114.46 222.184 1114.46 222.594ZM1126.83 219.469V228.333H1123.32V217.062H1126.61L1126.83 219.469ZM1126.42 222.312L1125.59 222.333C1125.59 221.472 1125.7 220.705 1125.91 220.031C1126.11 219.351 1126.41 218.774 1126.79 218.302C1127.17 217.83 1127.63 217.472 1128.16 217.229C1128.69 216.979 1129.28 216.854 1129.94 216.854C1130.46 216.854 1130.93 216.931 1131.36 217.083C1131.8 217.236 1132.18 217.483 1132.49 217.823C1132.81 218.163 1133.05 218.615 1133.22 219.177C1133.39 219.733 1133.48 220.42 1133.48 221.24V228.333H1129.95V221.229C1129.95 220.778 1129.89 220.434 1129.76 220.198C1129.64 219.955 1129.45 219.788 1129.22 219.698C1128.98 219.608 1128.69 219.562 1128.35 219.562C1127.99 219.562 1127.69 219.632 1127.44 219.771C1127.19 219.91 1126.99 220.104 1126.83 220.354C1126.69 220.597 1126.58 220.885 1126.51 221.219C1126.45 221.552 1126.42 221.917 1126.42 222.312ZM1142.51 217.062H1145.7V227.896C1145.7 228.937 1145.46 229.819 1144.98 230.542C1144.5 231.271 1143.83 231.823 1142.97 232.198C1142.11 232.58 1141.11 232.771 1139.97 232.771C1139.46 232.771 1138.94 232.705 1138.42 232.573C1137.89 232.448 1137.4 232.26 1136.94 232.01C1136.48 231.76 1136.09 231.451 1135.78 231.083L1137.25 229.021C1137.53 229.34 1137.89 229.611 1138.32 229.833C1138.75 230.062 1139.26 230.177 1139.84 230.177C1140.35 230.177 1140.77 230.087 1141.11 229.906C1141.46 229.726 1141.73 229.462 1141.91 229.115C1142.09 228.774 1142.18 228.361 1142.18 227.875V219.729L1142.51 217.062ZM1135.02 222.833V222.615C1135.02 221.76 1135.13 220.983 1135.33 220.281C1135.55 219.573 1135.85 218.965 1136.25 218.458C1136.65 217.944 1137.14 217.549 1137.71 217.271C1138.28 216.993 1138.92 216.854 1139.64 216.854C1140.41 216.854 1141.04 217.003 1141.53 217.302C1142.03 217.594 1142.43 218.003 1142.73 218.531C1143.03 219.059 1143.27 219.677 1143.44 220.385C1143.61 221.087 1143.76 221.844 1143.88 222.656V222.917C1143.76 223.681 1143.59 224.403 1143.39 225.083C1143.18 225.757 1142.92 226.354 1142.59 226.875C1142.27 227.396 1141.86 227.806 1141.36 228.104C1140.88 228.396 1140.3 228.542 1139.61 228.542C1138.91 228.542 1138.27 228.399 1137.7 228.115C1137.14 227.83 1136.65 227.431 1136.25 226.917C1135.85 226.403 1135.55 225.799 1135.33 225.104C1135.13 224.41 1135.02 223.653 1135.02 222.833ZM1138.53 222.615V222.833C1138.53 223.257 1138.57 223.649 1138.65 224.01C1138.73 224.372 1138.85 224.691 1139.02 224.969C1139.19 225.24 1139.39 225.451 1139.64 225.604C1139.89 225.757 1140.18 225.833 1140.51 225.833C1141.02 225.833 1141.43 225.726 1141.74 225.51C1142.05 225.295 1142.28 224.99 1142.42 224.594C1142.56 224.198 1142.61 223.733 1142.59 223.198V222.375C1142.61 221.917 1142.58 221.514 1142.5 221.167C1142.42 220.812 1142.3 220.517 1142.14 220.281C1141.98 220.045 1141.76 219.868 1141.49 219.75C1141.23 219.625 1140.91 219.562 1140.53 219.562C1140.2 219.562 1139.92 219.639 1139.67 219.792C1139.42 219.944 1139.21 220.16 1139.04 220.437C1138.88 220.708 1138.75 221.031 1138.66 221.406C1138.57 221.774 1138.53 222.177 1138.53 222.615ZM1147.28 222.812V222.594C1147.28 221.767 1147.4 221.007 1147.64 220.312C1147.87 219.611 1148.22 219.003 1148.68 218.49C1149.14 217.976 1149.7 217.576 1150.38 217.292C1151.05 217 1151.83 216.854 1152.71 216.854C1153.6 216.854 1154.38 217 1155.05 217.292C1155.73 217.576 1156.3 217.976 1156.76 218.49C1157.22 219.003 1157.57 219.611 1157.8 220.312C1158.04 221.007 1158.16 221.767 1158.16 222.594V222.812C1158.16 223.632 1158.04 224.392 1157.8 225.094C1157.57 225.788 1157.22 226.396 1156.76 226.917C1156.3 227.431 1155.74 227.83 1155.06 228.115C1154.39 228.399 1153.61 228.542 1152.73 228.542C1151.85 228.542 1151.07 228.399 1150.39 228.115C1149.7 227.83 1149.14 227.431 1148.68 226.917C1148.22 226.396 1147.87 225.788 1147.64 225.094C1147.4 224.392 1147.28 223.632 1147.28 222.812ZM1150.79 222.594V222.812C1150.79 223.236 1150.82 223.632 1150.89 224C1150.95 224.368 1151.05 224.691 1151.2 224.969C1151.34 225.24 1151.54 225.451 1151.79 225.604C1152.04 225.757 1152.35 225.833 1152.73 225.833C1153.1 225.833 1153.4 225.757 1153.65 225.604C1153.9 225.451 1154.09 225.24 1154.24 224.969C1154.39 224.691 1154.49 224.368 1154.55 224C1154.61 223.632 1154.65 223.236 1154.65 222.812V222.594C1154.65 222.184 1154.61 221.799 1154.55 221.437C1154.49 221.069 1154.39 220.747 1154.24 220.469C1154.09 220.184 1153.9 219.962 1153.65 219.802C1153.4 219.642 1153.08 219.562 1152.71 219.562C1152.34 219.562 1152.03 219.642 1151.78 219.802C1151.54 219.962 1151.34 220.184 1151.2 220.469C1151.05 220.747 1150.95 221.069 1150.89 221.437C1150.82 221.799 1150.79 222.184 1150.79 222.594ZM1164.81 228.333H1161.45L1161.47 225.521H1164.81C1165.51 225.521 1166.09 225.354 1166.57 225.021C1167.06 224.687 1167.43 224.191 1167.68 223.531C1167.93 222.865 1168.06 222.045 1168.06 221.073V220.417C1168.06 219.687 1167.99 219.049 1167.84 218.5C1167.7 217.944 1167.5 217.483 1167.22 217.115C1166.94 216.74 1166.59 216.458 1166.18 216.271C1165.77 216.083 1165.3 215.99 1164.76 215.99H1161.39V213.167H1164.76C1165.79 213.167 1166.73 213.344 1167.58 213.698C1168.44 214.045 1169.19 214.545 1169.81 215.198C1170.44 215.844 1170.93 216.611 1171.27 217.5C1171.62 218.382 1171.79 219.361 1171.79 220.437V221.073C1171.79 222.142 1171.62 223.122 1171.27 224.01C1170.93 224.899 1170.45 225.667 1169.82 226.312C1169.2 226.958 1168.46 227.458 1167.6 227.812C1166.76 228.16 1165.83 228.333 1164.81 228.333ZM1163.54 213.167V228.333H1159.89V213.167H1163.54ZM1179.89 221.885H1175.98L1175.96 219.49H1179.13C1179.69 219.49 1180.15 219.427 1180.49 219.302C1180.83 219.17 1181.08 218.979 1181.23 218.729C1181.39 218.479 1181.47 218.167 1181.47 217.792C1181.47 217.361 1181.39 217.014 1181.23 216.75C1181.07 216.486 1180.82 216.295 1180.47 216.177C1180.13 216.052 1179.69 215.99 1179.15 215.99H1177.35V228.333H1173.7V213.167H1179.15C1180.08 213.167 1180.92 213.253 1181.66 213.427C1182.39 213.594 1183.02 213.851 1183.53 214.198C1184.05 214.545 1184.45 214.983 1184.72 215.51C1184.99 216.031 1185.13 216.646 1185.13 217.354C1185.13 217.972 1184.99 218.552 1184.73 219.094C1184.47 219.635 1184.02 220.076 1183.41 220.417C1182.8 220.75 1181.96 220.924 1180.9 220.937L1179.89 221.885ZM1179.74 228.333H1175.09L1176.34 225.521H1179.74C1180.24 225.521 1180.64 225.444 1180.94 225.292C1181.24 225.132 1181.46 224.924 1181.59 224.667C1181.73 224.403 1181.8 224.111 1181.8 223.792C1181.8 223.403 1181.74 223.066 1181.6 222.781C1181.48 222.497 1181.28 222.278 1181 222.125C1180.72 221.965 1180.35 221.885 1179.89 221.885H1176.81L1176.83 219.49H1180.51L1181.36 220.448C1182.38 220.406 1183.18 220.549 1183.77 220.875C1184.37 221.201 1184.8 221.632 1185.05 222.167C1185.31 222.701 1185.44 223.26 1185.44 223.844C1185.44 224.837 1185.22 225.667 1184.79 226.333C1184.37 227 1183.73 227.5 1182.89 227.833C1182.04 228.167 1180.99 228.333 1179.74 228.333Z" fill="white"/>
</svg>
