<svg width="1363" height="167" viewBox="0 0 1363 167" fill="none" xmlns="http://www.w3.org/2000/svg">
<rect width="1363" height="167" rx="15" fill="#F0F0F0"/>
<path d="M0 15C0 6.71573 6.71573 0 15 0H37V167H15C6.71573 167 0 160.284 0 152V15Z" fill="#424241"/>
<path d="M100.906 54.9219L93.3945 52.2383V49.0859L103.602 53.375V55.6367L100.906 54.9219ZM93.3945 57.1719L100.918 54.4297L103.602 53.7852V56.0352L93.3945 60.3242V57.1719ZM125.914 53.0703V53.8789C125.914 55.1758 125.738 56.3398 125.387 57.3711C125.035 58.4023 124.539 59.2812 123.898 60.0078C123.258 60.7266 122.492 61.2773 121.602 61.6602C120.719 62.043 119.738 62.2344 118.66 62.2344C117.59 62.2344 116.609 62.043 115.719 61.6602C114.836 61.2773 114.07 60.7266 113.422 60.0078C112.773 59.2812 112.27 58.4023 111.91 57.3711C111.559 56.3398 111.383 55.1758 111.383 53.8789V53.0703C111.383 51.7656 111.559 50.6016 111.91 49.5781C112.262 48.5469 112.758 47.668 113.398 46.9414C114.047 46.2148 114.812 45.6602 115.695 45.2773C116.586 44.8945 117.566 44.7031 118.637 44.7031C119.715 44.7031 120.695 44.8945 121.578 45.2773C122.469 45.6602 123.234 46.2148 123.875 46.9414C124.523 47.668 125.023 48.5469 125.375 49.5781C125.734 50.6016 125.914 51.7656 125.914 53.0703ZM122.363 53.8789V53.0469C122.363 52.1406 122.281 51.3438 122.117 50.6562C121.953 49.9688 121.711 49.3906 121.391 48.9219C121.07 48.4531 120.68 48.1016 120.219 47.8672C119.758 47.625 119.23 47.5039 118.637 47.5039C118.043 47.5039 117.516 47.625 117.055 47.8672C116.602 48.1016 116.215 48.4531 115.895 48.9219C115.582 49.3906 115.344 49.9688 115.18 50.6562C115.016 51.3438 114.934 52.1406 114.934 53.0469V53.8789C114.934 54.7773 115.016 55.5742 115.18 56.2695C115.344 56.957 115.586 57.5391 115.906 58.0156C116.227 58.4844 116.617 58.8398 117.078 59.082C117.539 59.3242 118.066 59.4453 118.66 59.4453C119.254 59.4453 119.781 59.3242 120.242 59.082C120.703 58.8398 121.09 58.4844 121.402 58.0156C121.715 57.5391 121.953 56.957 122.117 56.2695C122.281 55.5742 122.363 54.7773 122.363 53.8789ZM131.539 52.0273V62H128.164V49.3203H131.328L131.539 52.0273ZM131.047 55.2148H130.133C130.133 54.2773 130.254 53.4336 130.496 52.6836C130.738 51.9258 131.078 51.2812 131.516 50.75C131.953 50.2109 132.473 49.8008 133.074 49.5195C133.684 49.2305 134.363 49.0859 135.113 49.0859C135.707 49.0859 136.25 49.1719 136.742 49.3438C137.234 49.5156 137.656 49.7891 138.008 50.1641C138.367 50.5391 138.641 51.0352 138.828 51.6523C139.023 52.2695 139.121 53.0234 139.121 53.9141V62H135.723V53.9023C135.723 53.3398 135.645 52.9023 135.488 52.5898C135.332 52.2773 135.102 52.0586 134.797 51.9336C134.5 51.8008 134.133 51.7344 133.695 51.7344C133.242 51.7344 132.848 51.8242 132.512 52.0039C132.184 52.1836 131.91 52.4336 131.691 52.7539C131.48 53.0664 131.32 53.4336 131.211 53.8555C131.102 54.2773 131.047 54.7305 131.047 55.2148ZM143.504 44.9375H146.48L150.863 57.4648L155.246 44.9375H158.223L152.059 62H149.668L143.504 44.9375ZM141.898 44.9375H144.863L145.402 57.1484V62H141.898V44.9375ZM156.863 44.9375H159.84V62H156.324V57.1484L156.863 44.9375ZM166.473 60.5703L169.836 49.3203H173.457L168.359 63.9102C168.25 64.2305 168.102 64.5742 167.914 64.9414C167.734 65.3086 167.488 65.6562 167.176 65.9844C166.871 66.3203 166.484 66.5938 166.016 66.8047C165.555 67.0156 164.988 67.1211 164.316 67.1211C163.996 67.1211 163.734 67.1016 163.531 67.0625C163.328 67.0234 163.086 66.9688 162.805 66.8984V64.4258C162.891 64.4258 162.98 64.4258 163.074 64.4258C163.168 64.4336 163.258 64.4375 163.344 64.4375C163.789 64.4375 164.152 64.3867 164.434 64.2852C164.715 64.1836 164.941 64.0273 165.113 63.8164C165.285 63.6133 165.422 63.3477 165.523 63.0195L166.473 60.5703ZM165.066 49.3203L167.82 58.5078L168.301 62.082L166.004 62.3281L161.445 49.3203H165.066ZM179.129 59.293L182.527 44.9375H184.426L184.859 47.3281L181.238 62H179.199L179.129 59.293ZM177.383 44.9375L180.195 59.293L179.961 62H177.688L173.902 44.9375H177.383ZM187.848 59.2344L190.625 44.9375H194.105L190.332 62H188.059L187.848 59.2344ZM185.492 44.9375L188.914 59.3516L188.82 62H186.781L183.137 47.3164L183.605 44.9375H185.492ZM202.25 59.1406V53.4922C202.25 53.0859 202.184 52.7383 202.051 52.4492C201.918 52.1523 201.711 51.9219 201.43 51.7578C201.156 51.5938 200.801 51.5117 200.363 51.5117C199.988 51.5117 199.664 51.5781 199.391 51.7109C199.117 51.8359 198.906 52.0195 198.758 52.2617C198.609 52.4961 198.535 52.7734 198.535 53.0938H195.16C195.16 52.5547 195.285 52.043 195.535 51.5586C195.785 51.0742 196.148 50.6484 196.625 50.2812C197.102 49.9062 197.668 49.6133 198.324 49.4023C198.988 49.1914 199.73 49.0859 200.551 49.0859C201.535 49.0859 202.41 49.25 203.176 49.5781C203.941 49.9062 204.543 50.3984 204.98 51.0547C205.426 51.7109 205.648 52.5312 205.648 53.5156V58.9414C205.648 59.6367 205.691 60.207 205.777 60.6523C205.863 61.0898 205.988 61.4727 206.152 61.8008V62H202.742C202.578 61.6562 202.453 61.2266 202.367 60.7109C202.289 60.1875 202.25 59.6641 202.25 59.1406ZM202.695 54.2773L202.719 56.1875H200.832C200.387 56.1875 200 56.2383 199.672 56.3398C199.344 56.4414 199.074 56.5859 198.863 56.7734C198.652 56.9531 198.496 57.1641 198.395 57.4062C198.301 57.6484 198.254 57.9141 198.254 58.2031C198.254 58.4922 198.32 58.7539 198.453 58.9883C198.586 59.2148 198.777 59.3945 199.027 59.5273C199.277 59.6523 199.57 59.7148 199.906 59.7148C200.414 59.7148 200.855 59.6133 201.23 59.4102C201.605 59.207 201.895 58.957 202.098 58.6602C202.309 58.3633 202.418 58.082 202.426 57.8164L203.316 59.2461C203.191 59.5664 203.02 59.8984 202.801 60.2422C202.59 60.5859 202.32 60.9102 201.992 61.2148C201.664 61.5117 201.27 61.7578 200.809 61.9531C200.348 62.1406 199.801 62.2344 199.168 62.2344C198.363 62.2344 197.633 62.0742 196.977 61.7539C196.328 61.4258 195.812 60.9766 195.43 60.4062C195.055 59.8281 194.867 59.1719 194.867 58.4375C194.867 57.7734 194.992 57.1836 195.242 56.668C195.492 56.1523 195.859 55.7188 196.344 55.3672C196.836 55.0078 197.449 54.7383 198.184 54.5586C198.918 54.3711 199.77 54.2773 200.738 54.2773H202.695ZM211.824 60.5703L215.188 49.3203H218.809L213.711 63.9102C213.602 64.2305 213.453 64.5742 213.266 64.9414C213.086 65.3086 212.84 65.6562 212.527 65.9844C212.223 66.3203 211.836 66.5938 211.367 66.8047C210.906 67.0156 210.34 67.1211 209.668 67.1211C209.348 67.1211 209.086 67.1016 208.883 67.0625C208.68 67.0234 208.438 66.9688 208.156 66.8984V64.4258C208.242 64.4258 208.332 64.4258 208.426 64.4258C208.52 64.4336 208.609 64.4375 208.695 64.4375C209.141 64.4375 209.504 64.3867 209.785 64.2852C210.066 64.1836 210.293 64.0273 210.465 63.8164C210.637 63.6133 210.773 63.3477 210.875 63.0195L211.824 60.5703ZM210.418 49.3203L213.172 58.5078L213.652 62.082L211.355 62.3281L206.797 49.3203H210.418Z" fill="#888888"/>
<path d="M115.994 98.708V104.641H99.5806V98.708H115.994ZM102.151 86.0078V118H94.439V86.0078H102.151ZM121.18 86.0078V118H113.489V86.0078H121.18ZM124.805 106.354V105.893C124.805 104.15 125.054 102.546 125.552 101.081C126.05 99.6016 126.783 98.3198 127.75 97.2358C128.716 96.1519 129.91 95.3096 131.331 94.709C132.752 94.0938 134.393 93.7861 136.253 93.7861C138.128 93.7861 139.776 94.0938 141.197 94.709C142.632 95.3096 143.833 96.1519 144.8 97.2358C145.767 98.3198 146.5 99.6016 146.998 101.081C147.496 102.546 147.745 104.15 147.745 105.893V106.354C147.745 108.083 147.496 109.687 146.998 111.167C146.5 112.631 145.767 113.913 144.8 115.012C143.833 116.096 142.64 116.938 141.219 117.539C139.798 118.139 138.157 118.439 136.297 118.439C134.437 118.439 132.789 118.139 131.353 117.539C129.917 116.938 128.716 116.096 127.75 115.012C126.783 113.913 126.05 112.631 125.552 111.167C125.054 109.687 124.805 108.083 124.805 106.354ZM132.21 105.893V106.354C132.21 107.248 132.276 108.083 132.408 108.859C132.54 109.636 132.759 110.317 133.067 110.903C133.375 111.474 133.792 111.921 134.319 112.243C134.847 112.565 135.506 112.727 136.297 112.727C137.073 112.727 137.718 112.565 138.23 112.243C138.758 111.921 139.175 111.474 139.483 110.903C139.791 110.317 140.01 109.636 140.142 108.859C140.274 108.083 140.34 107.248 140.34 106.354V105.893C140.34 105.029 140.274 104.216 140.142 103.454C140.01 102.678 139.791 101.997 139.483 101.411C139.175 100.81 138.758 100.341 138.23 100.004C137.703 99.6675 137.044 99.499 136.253 99.499C135.477 99.499 134.825 99.6675 134.297 100.004C133.785 100.341 133.375 100.81 133.067 101.411C132.759 101.997 132.54 102.678 132.408 103.454C132.276 104.216 132.21 105.029 132.21 105.893ZM158.27 110.925L162.664 94.2256H167.3L165.652 102.597L161.302 118H157.588L158.27 110.925ZM156.534 94.2256L159.258 110.793L159.566 118H155.062L149.437 94.2256H156.534ZM171.211 110.441L173.958 94.2256H181.055L175.474 118H170.97L171.211 110.441ZM167.828 94.2256L172.266 110.881L172.947 118H169.19L164.927 102.641L163.345 94.2256H167.828ZM209.466 86.0078V118H201.753V86.0078H209.466ZM219.09 86.0078V91.9624H192.349V86.0078H219.09ZM216.475 106.354V105.893C216.475 104.15 216.724 102.546 217.222 101.081C217.72 99.6016 218.453 98.3198 219.419 97.2358C220.386 96.1519 221.58 95.3096 223.001 94.709C224.422 94.0938 226.062 93.7861 227.923 93.7861C229.798 93.7861 231.446 94.0938 232.867 94.709C234.302 95.3096 235.503 96.1519 236.47 97.2358C237.437 98.3198 238.169 99.6016 238.667 101.081C239.166 102.546 239.415 104.15 239.415 105.893V106.354C239.415 108.083 239.166 109.687 238.667 111.167C238.169 112.631 237.437 113.913 236.47 115.012C235.503 116.096 234.31 116.938 232.889 117.539C231.468 118.139 229.827 118.439 227.967 118.439C226.106 118.439 224.458 118.139 223.023 117.539C221.587 116.938 220.386 116.096 219.419 115.012C218.453 113.913 217.72 112.631 217.222 111.167C216.724 109.687 216.475 108.083 216.475 106.354ZM223.88 105.893V106.354C223.88 107.248 223.946 108.083 224.078 108.859C224.209 109.636 224.429 110.317 224.737 110.903C225.044 111.474 225.462 111.921 225.989 112.243C226.517 112.565 227.176 112.727 227.967 112.727C228.743 112.727 229.388 112.565 229.9 112.243C230.428 111.921 230.845 111.474 231.153 110.903C231.46 110.317 231.68 109.636 231.812 108.859C231.944 108.083 232.01 107.248 232.01 106.354V105.893C232.01 105.029 231.944 104.216 231.812 103.454C231.68 102.678 231.46 101.997 231.153 101.411C230.845 100.81 230.428 100.341 229.9 100.004C229.373 99.6675 228.714 99.499 227.923 99.499C227.146 99.499 226.495 99.6675 225.967 100.004C225.455 100.341 225.044 100.81 224.737 101.411C224.429 101.997 224.209 102.678 224.078 103.454C223.946 104.216 223.88 105.029 223.88 105.893ZM254.268 86.0078H266.858C269.319 86.0078 271.458 86.374 273.274 87.1064C275.091 87.8389 276.49 88.9229 277.471 90.3584C278.467 91.7939 278.965 93.5664 278.965 95.6758C278.965 97.5068 278.68 99.0376 278.108 100.268C277.537 101.499 276.739 102.517 275.713 103.322C274.703 104.113 273.523 104.765 272.176 105.278L269.649 106.706H259.08L259.036 100.751H266.858C267.84 100.751 268.653 100.576 269.297 100.224C269.942 99.8726 270.425 99.3745 270.748 98.73C271.084 98.0708 271.253 97.2871 271.253 96.3789C271.253 95.4561 271.084 94.665 270.748 94.0059C270.411 93.3467 269.913 92.8413 269.253 92.4897C268.609 92.1382 267.811 91.9624 266.858 91.9624H261.98V118H254.268V86.0078ZM271.78 118L264.705 103.85L272.879 103.806L280.042 117.67V118H271.78ZM297.159 112.221V94.2256H304.585V118H297.642L297.159 112.221ZM297.862 107.387L299.795 107.343C299.795 108.94 299.605 110.419 299.224 111.782C298.843 113.129 298.279 114.301 297.532 115.297C296.8 116.293 295.892 117.07 294.808 117.626C293.738 118.168 292.5 118.439 291.094 118.439C289.922 118.439 288.846 118.278 287.864 117.956C286.897 117.619 286.062 117.099 285.359 116.396C284.656 115.678 284.107 114.763 283.711 113.649C283.331 112.521 283.14 111.174 283.14 109.606V94.2256H290.545V109.65C290.545 110.178 290.611 110.632 290.743 111.013C290.875 111.394 291.065 111.716 291.314 111.979C291.563 112.229 291.871 112.419 292.237 112.551C292.618 112.668 293.05 112.727 293.533 112.727C294.646 112.727 295.518 112.492 296.148 112.023C296.778 111.555 297.217 110.917 297.466 110.112C297.73 109.306 297.862 108.398 297.862 107.387ZM315.945 99.3013V118H308.541V94.2256H315.484L315.945 99.3013ZM315.066 105.3L313.331 105.344C313.331 103.527 313.55 101.909 313.99 100.488C314.429 99.0522 315.052 97.8364 315.857 96.8403C316.663 95.8442 317.623 95.0898 318.736 94.5771C319.864 94.0498 321.116 93.7861 322.493 93.7861C323.592 93.7861 324.595 93.9473 325.503 94.2695C326.426 94.5918 327.217 95.1118 327.876 95.8296C328.55 96.5474 329.063 97.4995 329.415 98.686C329.781 99.8579 329.964 101.308 329.964 103.037V118H322.515V103.015C322.515 102.062 322.383 101.337 322.12 100.839C321.856 100.327 321.475 99.9751 320.977 99.7847C320.479 99.5942 319.871 99.499 319.153 99.499C318.392 99.499 317.747 99.6455 317.22 99.9385C316.692 100.231 316.268 100.642 315.945 101.169C315.638 101.682 315.411 102.29 315.264 102.993C315.132 103.696 315.066 104.465 315.066 105.3ZM345.85 107.871H339.544C339.544 106.582 339.632 105.446 339.808 104.465C339.998 103.469 340.32 102.575 340.774 101.784C341.229 100.993 341.844 100.261 342.62 99.5869C343.309 99.0156 343.902 98.4663 344.4 97.939C344.898 97.4116 345.279 96.877 345.542 96.335C345.806 95.793 345.938 95.2144 345.938 94.5991C345.938 93.8374 345.828 93.2148 345.608 92.7314C345.403 92.248 345.088 91.8892 344.664 91.6548C344.253 91.4058 343.733 91.2812 343.104 91.2812C342.591 91.2812 342.107 91.4058 341.653 91.6548C341.214 91.9038 340.855 92.292 340.577 92.8193C340.298 93.332 340.145 94.0132 340.115 94.8628H332.667C332.71 92.6802 333.194 90.9077 334.117 89.5454C335.054 88.1685 336.299 87.165 337.852 86.5352C339.419 85.8906 341.17 85.5684 343.104 85.5684C345.242 85.5684 347.081 85.8979 348.619 86.5571C350.157 87.2163 351.336 88.1978 352.156 89.5015C352.977 90.7905 353.387 92.3799 353.387 94.2695C353.387 95.5293 353.145 96.6279 352.662 97.5654C352.193 98.4883 351.556 99.3525 350.75 100.158C349.959 100.949 349.073 101.799 348.091 102.707C347.242 103.454 346.663 104.216 346.355 104.992C346.048 105.754 345.879 106.713 345.85 107.871ZM338.643 114.55C338.643 113.496 339.024 112.617 339.786 111.914C340.547 111.196 341.536 110.837 342.752 110.837C343.968 110.837 344.957 111.196 345.718 111.914C346.48 112.617 346.861 113.496 346.861 114.55C346.861 115.605 346.48 116.491 345.718 117.209C344.957 117.912 343.968 118.264 342.752 118.264C341.536 118.264 340.547 117.912 339.786 117.209C339.024 116.491 338.643 115.605 338.643 114.55Z" fill="#424241"/>
<path d="M1363 15C1363 6.71573 1356.28 0 1348 0H1134V167H1348C1356.28 167 1363 160.284 1363 152V15Z" fill="#005A9C"/>
<path d="M1260.77 81.3079C1263.96 81.3079 1267.09 82.2553 1269.74 84.0303C1272.4 85.8053 1274.47 88.3282 1275.69 91.2799C1276.92 94.2316 1277.24 97.4796 1276.61 100.613C1275.99 103.747 1274.45 106.625 1272.19 108.884C1269.93 111.143 1267.05 112.682 1263.92 113.305C1260.79 113.928 1257.54 113.608 1254.59 112.386C1251.64 111.163 1249.11 109.093 1247.34 106.436C1245.56 103.78 1244.62 100.657 1244.62 97.4617C1244.62 93.1774 1246.32 89.0686 1249.35 86.0392C1252.38 83.0098 1256.48 81.3079 1260.77 81.3079V81.3079ZM1260.77 75.9233C1256.51 75.9233 1252.35 77.1865 1248.8 79.5532C1245.26 81.9198 1242.5 85.2837 1240.87 89.2193C1239.24 93.1549 1238.81 97.4856 1239.64 101.664C1240.48 105.842 1242.53 109.679 1245.54 112.692C1248.55 115.704 1252.39 117.755 1256.57 118.586C1260.75 119.417 1265.08 118.991 1269.01 117.361C1272.95 115.73 1276.31 112.97 1278.68 109.428C1281.04 105.886 1282.31 101.722 1282.31 97.4617C1282.31 91.7493 1280.04 86.271 1276 82.2317C1271.96 78.1925 1266.48 75.9233 1260.77 75.9233Z" fill="white"/>
<path d="M1274.23 49H1220.38C1218.96 49 1217.59 49.5673 1216.58 50.5771C1215.57 51.5869 1215 52.9565 1215 54.3846V108.231C1215 109.659 1215.57 111.028 1216.58 112.038C1217.59 113.048 1218.96 113.615 1220.38 113.615H1231.15V108.231H1220.38V70.5384H1279.62V54.3846C1279.62 52.9565 1279.05 51.5869 1278.04 50.5771C1277.03 49.5673 1275.66 49 1274.23 49V49ZM1220.38 65.1538V54.3846H1274.23V65.1538H1220.38Z" fill="white"/>
<path d="M1255.38 89.3849V105.539L1268.85 97.4618L1255.38 89.3849Z" fill="white"/>
</svg>
